<svg width="587" height="180" viewBox="0 0 587 180" fill="none" xmlns="http://www.w3.org/2000/svg">
<rect x="92" width="218" height="52" rx="26" fill="white"/>
<g clip-path="url(#clip0_246_1101)">
<path d="M125.997 18.17C126.583 18.3764 127.09 18.7594 127.449 19.2663C127.807 19.7732 128 20.379 128 21V33C128 33.7956 127.684 34.5587 127.121 35.1213C126.559 35.6839 125.796 36 125 36H115C114.204 36 113.441 35.6839 112.879 35.1213C112.316 34.5587 112 33.7956 112 33V21C112 20.379 112.193 19.7732 112.551 19.2663C112.91 18.7594 113.417 18.3764 114.003 18.17C114.047 19.2006 114.487 20.1744 115.232 20.8881C115.977 21.6018 116.968 22.0002 118 22H122C122.991 22.0001 123.947 21.6322 124.682 20.9676C125.418 20.303 125.88 19.3891 125.98 18.403L125.997 18.17ZM123 29H117C116.735 29 116.48 29.1054 116.293 29.2929C116.105 29.4804 116 29.7348 116 30C116 30.2652 116.105 30.5196 116.293 30.7071C116.48 30.8946 116.735 31 117 31H123C123.265 31 123.52 30.8946 123.707 30.7071C123.895 30.5196 124 30.2652 124 30C124 29.7348 123.895 29.4804 123.707 29.2929C123.52 29.1054 123.265 29 123 29ZM123 25H117C116.735 25 116.48 25.1054 116.293 25.2929C116.105 25.4804 116 25.7348 116 26C116 26.2652 116.105 26.5196 116.293 26.7071C116.48 26.8946 116.735 27 117 27H123C123.265 27 123.52 26.8946 123.707 26.7071C123.895 26.5196 124 26.2652 124 26C124 25.7348 123.895 25.4804 123.707 25.2929C123.52 25.1054 123.265 25 123 25ZM122 16C122.53 16 123.039 16.2107 123.414 16.5858C123.789 16.9609 124 17.4696 124 18C124 18.5304 123.789 19.0391 123.414 19.4142C123.039 19.7893 122.53 20 122 20H118C117.47 20 116.961 19.7893 116.586 19.4142C116.211 19.0391 116 18.5304 116 18C116 17.4696 116.211 16.9609 116.586 16.5858C116.961 16.2107 117.47 16 118 16H122Z" fill="#F9CD21"/>
</g>
<path d="M144.195 33L149.469 18.4492H152.096L157.35 33H154.986L152.174 24.8066C151.946 24.1165 151.699 23.3548 151.432 22.5215C151.171 21.6882 150.855 20.6562 150.484 19.4258H151.08C150.715 20.6562 150.4 21.6882 150.133 22.5215C149.866 23.3548 149.615 24.1165 149.381 24.8066L146.52 33H144.195ZM147.115 29.2109V27.375H154.43V29.2109H147.115ZM161.09 18.4492V33H158.912V18.4492H161.09ZM172.311 33.2344C171.523 33.2344 170.813 33.1107 170.182 32.8633C169.55 32.6159 169.039 32.2448 168.648 31.75C168.264 31.2552 168.043 30.64 167.984 29.9043L170.025 29.8555C170.09 30.4154 170.315 30.8451 170.699 31.1445C171.083 31.444 171.607 31.5938 172.271 31.5938C172.929 31.5938 173.447 31.4603 173.824 31.1934C174.208 30.9199 174.4 30.5781 174.4 30.168C174.4 29.8164 174.267 29.5332 174 29.3184C173.733 29.1035 173.372 28.9473 172.916 28.8496L171.188 28.4688C170.217 28.2539 169.482 27.8991 168.98 27.4043C168.479 26.9095 168.229 26.278 168.229 25.5098C168.229 24.8978 168.395 24.3574 168.727 23.8887C169.059 23.4199 169.524 23.0553 170.123 22.7949C170.722 22.5345 171.419 22.4043 172.213 22.4043C172.988 22.4043 173.671 22.541 174.264 22.8145C174.863 23.0814 175.335 23.4622 175.68 23.957C176.031 24.4453 176.223 25.028 176.256 25.7051L174.293 25.7539C174.273 25.2656 174.078 24.8587 173.707 24.5332C173.342 24.2077 172.851 24.0449 172.232 24.0449C171.646 24.0449 171.178 24.1816 170.826 24.4551C170.475 24.7285 170.299 25.0638 170.299 25.4609C170.299 25.8125 170.432 26.0957 170.699 26.3105C170.966 26.5254 171.337 26.6882 171.812 26.7988L173.57 27.1895C174.573 27.4108 175.312 27.7559 175.787 28.2246C176.262 28.6868 176.5 29.2956 176.5 30.0508C176.5 30.7018 176.318 31.2682 175.953 31.75C175.595 32.2253 175.1 32.5931 174.469 32.8535C173.837 33.1074 173.118 33.2344 172.311 33.2344ZM182.818 33.2344C181.79 33.2344 180.904 33.0033 180.162 32.541C179.426 32.0788 178.86 31.4408 178.463 30.627C178.072 29.8132 177.877 28.8822 177.877 27.834C177.877 26.7728 178.079 25.8353 178.482 25.0215C178.893 24.2012 179.459 23.5599 180.182 23.0977C180.911 22.6289 181.751 22.3945 182.701 22.3945C183.417 22.3945 184.068 22.5215 184.654 22.7754C185.247 23.0293 185.755 23.3939 186.178 23.8691C186.607 24.3444 186.936 24.9141 187.164 25.5781C187.398 26.2422 187.516 26.9811 187.516 27.7949V28.3809H178.834V26.8184H186.432L185.514 27.2969C185.514 26.6523 185.4 26.0924 185.172 25.6172C184.944 25.1419 184.622 24.7741 184.205 24.5137C183.788 24.2533 183.29 24.123 182.711 24.123C182.145 24.123 181.65 24.2533 181.227 24.5137C180.81 24.7741 180.488 25.1419 180.26 25.6172C180.032 26.0859 179.918 26.6361 179.918 27.2676V28.1855C179.918 28.8431 180.032 29.4225 180.26 29.9238C180.488 30.4251 180.82 30.8158 181.256 31.0957C181.699 31.3691 182.229 31.5059 182.848 31.5059C183.29 31.5059 183.681 31.4375 184.02 31.3008C184.365 31.1641 184.651 30.9753 184.879 30.7344C185.113 30.487 185.279 30.1973 185.377 29.8652L187.369 29.9238C187.232 30.5749 186.952 31.151 186.529 31.6523C186.106 32.1471 185.576 32.5345 184.938 32.8145C184.299 33.0944 183.593 33.2344 182.818 33.2344ZM193.209 33.2344C192.421 33.2344 191.712 33.1107 191.08 32.8633C190.449 32.6159 189.938 32.2448 189.547 31.75C189.163 31.2552 188.941 30.64 188.883 29.9043L190.924 29.8555C190.989 30.4154 191.214 30.8451 191.598 31.1445C191.982 31.444 192.506 31.5938 193.17 31.5938C193.827 31.5938 194.345 31.4603 194.723 31.1934C195.107 30.9199 195.299 30.5781 195.299 30.168C195.299 29.8164 195.165 29.5332 194.898 29.3184C194.632 29.1035 194.27 28.9473 193.814 28.8496L192.086 28.4688C191.116 28.2539 190.38 27.8991 189.879 27.4043C189.378 26.9095 189.127 26.278 189.127 25.5098C189.127 24.8978 189.293 24.3574 189.625 23.8887C189.957 23.4199 190.423 23.0553 191.021 22.7949C191.62 22.5345 192.317 22.4043 193.111 22.4043C193.886 22.4043 194.57 22.541 195.162 22.8145C195.761 23.0814 196.233 23.4622 196.578 23.957C196.93 24.4453 197.122 25.028 197.154 25.7051L195.191 25.7539C195.172 25.2656 194.977 24.8587 194.605 24.5332C194.241 24.2077 193.749 24.0449 193.131 24.0449C192.545 24.0449 192.076 24.1816 191.725 24.4551C191.373 24.7285 191.197 25.0638 191.197 25.4609C191.197 25.8125 191.331 26.0957 191.598 26.3105C191.865 26.5254 192.236 26.6882 192.711 26.7988L194.469 27.1895C195.471 27.4108 196.21 27.7559 196.686 28.2246C197.161 28.6868 197.398 29.2956 197.398 30.0508C197.398 30.7018 197.216 31.2682 196.852 31.75C196.493 32.2253 195.999 32.5931 195.367 32.8535C194.736 33.1074 194.016 33.2344 193.209 33.2344ZM203.111 33.2344C202.324 33.2344 201.614 33.1107 200.982 32.8633C200.351 32.6159 199.84 32.2448 199.449 31.75C199.065 31.2552 198.844 30.64 198.785 29.9043L200.826 29.8555C200.891 30.4154 201.116 30.8451 201.5 31.1445C201.884 31.444 202.408 31.5938 203.072 31.5938C203.73 31.5938 204.247 31.4603 204.625 31.1934C205.009 30.9199 205.201 30.5781 205.201 30.168C205.201 29.8164 205.068 29.5332 204.801 29.3184C204.534 29.1035 204.173 28.9473 203.717 28.8496L201.988 28.4688C201.018 28.2539 200.283 27.8991 199.781 27.4043C199.28 26.9095 199.029 26.278 199.029 25.5098C199.029 24.8978 199.195 24.3574 199.527 23.8887C199.859 23.4199 200.325 23.0553 200.924 22.7949C201.523 22.5345 202.219 22.4043 203.014 22.4043C203.788 22.4043 204.472 22.541 205.064 22.8145C205.663 23.0814 206.135 23.4622 206.48 23.957C206.832 24.4453 207.024 25.028 207.057 25.7051L205.094 25.7539C205.074 25.2656 204.879 24.8587 204.508 24.5332C204.143 24.2077 203.652 24.0449 203.033 24.0449C202.447 24.0449 201.979 24.1816 201.627 24.4551C201.275 24.7285 201.1 25.0638 201.1 25.4609C201.1 25.8125 201.233 26.0957 201.5 26.3105C201.767 26.5254 202.138 26.6882 202.613 26.7988L204.371 27.1895C205.374 27.4108 206.113 27.7559 206.588 28.2246C207.063 28.6868 207.301 29.2956 207.301 30.0508C207.301 30.7018 207.118 31.2682 206.754 31.75C206.396 32.2253 205.901 32.5931 205.27 32.8535C204.638 33.1074 203.919 33.2344 203.111 33.2344ZM209.176 33V22.6191H211.246V33H209.176ZM210.211 20.8613C209.84 20.8613 209.527 20.7376 209.273 20.4902C209.026 20.2428 208.902 19.9434 208.902 19.5918C208.902 19.2337 209.026 18.9342 209.273 18.6934C209.527 18.446 209.837 18.3223 210.201 18.3223C210.572 18.3223 210.885 18.446 211.139 18.6934C211.393 18.9342 211.52 19.2337 211.52 19.5918C211.52 19.9434 211.393 20.2428 211.139 20.4902C210.885 20.7376 210.576 20.8613 210.211 20.8613ZM218.082 33.2344C217.099 33.2344 216.233 33.0065 215.484 32.5508C214.742 32.0951 214.163 31.4603 213.746 30.6465C213.336 29.8327 213.131 28.8952 213.131 27.834C213.131 26.7598 213.336 25.8158 213.746 25.002C214.163 24.1882 214.742 23.5501 215.484 23.0879C216.233 22.6257 217.099 22.3945 218.082 22.3945C219.072 22.3945 219.938 22.6257 220.68 23.0879C221.422 23.5501 221.998 24.1882 222.408 25.002C222.825 25.8158 223.033 26.7598 223.033 27.834C223.033 28.8952 222.825 29.8327 222.408 30.6465C221.998 31.4603 221.422 32.0951 220.68 32.5508C219.938 33.0065 219.072 33.2344 218.082 33.2344ZM218.082 31.4473C218.681 31.4473 219.192 31.2975 219.615 30.998C220.045 30.6986 220.37 30.2786 220.592 29.7383C220.82 29.1914 220.934 28.5566 220.934 27.834C220.934 27.0983 220.82 26.4603 220.592 25.9199C220.37 25.373 220.045 24.9466 219.615 24.6406C219.192 24.3346 218.681 24.1816 218.082 24.1816C217.49 24.1816 216.979 24.3346 216.549 24.6406C216.119 24.9401 215.79 25.3633 215.562 25.9102C215.335 26.457 215.221 27.0983 215.221 27.834C215.221 28.5632 215.335 29.1979 215.562 29.7383C215.79 30.2786 216.116 30.6986 216.539 30.998C216.969 31.2975 217.483 31.4473 218.082 31.4473ZM226.988 27.0039V33H224.918V22.6191H226.949V25.1973H226.5C226.832 24.2663 227.298 23.5729 227.896 23.1172C228.502 22.6549 229.234 22.4238 230.094 22.4238C230.803 22.4238 231.438 22.5801 231.998 22.8926C232.564 23.1986 233.01 23.6543 233.336 24.2598C233.661 24.8652 233.824 25.6172 233.824 26.5156V33H231.744V26.7793C231.744 25.9525 231.546 25.3275 231.148 24.9043C230.758 24.4811 230.201 24.2695 229.479 24.2695C229.016 24.2695 228.596 24.3672 228.219 24.5625C227.841 24.7513 227.542 25.0475 227.32 25.4512C227.099 25.8548 226.988 26.3724 226.988 27.0039ZM243.102 27.0039V33H241.031V22.6191H243.062V25.1973H242.613C242.945 24.2663 243.411 23.5729 244.01 23.1172C244.615 22.6549 245.348 22.4238 246.207 22.4238C246.917 22.4238 247.551 22.5801 248.111 22.8926C248.678 23.1986 249.124 23.6543 249.449 24.2598C249.775 24.8652 249.938 25.6172 249.938 26.5156V33H247.857V26.7793C247.857 25.9525 247.659 25.3275 247.262 24.9043C246.871 24.4811 246.314 24.2695 245.592 24.2695C245.13 24.2695 244.71 24.3672 244.332 24.5625C243.954 24.7513 243.655 25.0475 243.434 25.4512C243.212 25.8548 243.102 26.3724 243.102 27.0039ZM256.773 33.2344C255.79 33.2344 254.924 33.0065 254.176 32.5508C253.434 32.0951 252.854 31.4603 252.438 30.6465C252.027 29.8327 251.822 28.8952 251.822 27.834C251.822 26.7598 252.027 25.8158 252.438 25.002C252.854 24.1882 253.434 23.5501 254.176 23.0879C254.924 22.6257 255.79 22.3945 256.773 22.3945C257.763 22.3945 258.629 22.6257 259.371 23.0879C260.113 23.5501 260.689 24.1882 261.1 25.002C261.516 25.8158 261.725 26.7598 261.725 27.834C261.725 28.8952 261.516 29.8327 261.1 30.6465C260.689 31.4603 260.113 32.0951 259.371 32.5508C258.629 33.0065 257.763 33.2344 256.773 33.2344ZM256.773 31.4473C257.372 31.4473 257.883 31.2975 258.307 30.998C258.736 30.6986 259.062 30.2786 259.283 29.7383C259.511 29.1914 259.625 28.5566 259.625 27.834C259.625 27.0983 259.511 26.4603 259.283 25.9199C259.062 25.373 258.736 24.9466 258.307 24.6406C257.883 24.3346 257.372 24.1816 256.773 24.1816C256.181 24.1816 255.67 24.3346 255.24 24.6406C254.811 24.9401 254.482 25.3633 254.254 25.9102C254.026 26.457 253.912 27.0983 253.912 27.834C253.912 28.5632 254.026 29.1979 254.254 29.7383C254.482 30.2786 254.807 30.6986 255.23 30.998C255.66 31.2975 256.174 31.4473 256.773 31.4473ZM268.551 22.6191V24.3281H262.574V22.6191H268.551ZM264.371 19.8359H266.441V30.2461C266.441 30.6367 266.523 30.9102 266.686 31.0664C266.848 31.2227 267.135 31.3008 267.545 31.3008C267.695 31.3008 267.864 31.3008 268.053 31.3008C268.242 31.2943 268.404 31.291 268.541 31.291L268.58 32.9902C268.404 32.9967 268.196 33.0033 267.955 33.0098C267.714 33.0163 267.483 33.0195 267.262 33.0195C266.292 33.0195 265.566 32.8112 265.084 32.3945C264.609 31.9714 264.371 31.3398 264.371 30.5V19.8359ZM274.693 33.2344C273.665 33.2344 272.779 33.0033 272.037 32.541C271.301 32.0788 270.735 31.4408 270.338 30.627C269.947 29.8132 269.752 28.8822 269.752 27.834C269.752 26.7728 269.954 25.8353 270.357 25.0215C270.768 24.2012 271.334 23.5599 272.057 23.0977C272.786 22.6289 273.626 22.3945 274.576 22.3945C275.292 22.3945 275.943 22.5215 276.529 22.7754C277.122 23.0293 277.63 23.3939 278.053 23.8691C278.482 24.3444 278.811 24.9141 279.039 25.5781C279.273 26.2422 279.391 26.9811 279.391 27.7949V28.3809H270.709V26.8184H278.307L277.389 27.2969C277.389 26.6523 277.275 26.0924 277.047 25.6172C276.819 25.1419 276.497 24.7741 276.08 24.5137C275.663 24.2533 275.165 24.123 274.586 24.123C274.02 24.123 273.525 24.2533 273.102 24.5137C272.685 24.7741 272.363 25.1419 272.135 25.6172C271.907 26.0859 271.793 26.6361 271.793 27.2676V28.1855C271.793 28.8431 271.907 29.4225 272.135 29.9238C272.363 30.4251 272.695 30.8158 273.131 31.0957C273.574 31.3691 274.104 31.5059 274.723 31.5059C275.165 31.5059 275.556 31.4375 275.895 31.3008C276.24 31.1641 276.526 30.9753 276.754 30.7344C276.988 30.487 277.154 30.1973 277.252 29.8652L279.244 29.9238C279.107 30.5749 278.827 31.151 278.404 31.6523C277.981 32.1471 277.451 32.5345 276.812 32.8145C276.174 33.0944 275.468 33.2344 274.693 33.2344ZM285.084 33.2344C284.296 33.2344 283.587 33.1107 282.955 32.8633C282.324 32.6159 281.812 32.2448 281.422 31.75C281.038 31.2552 280.816 30.64 280.758 29.9043L282.799 29.8555C282.864 30.4154 283.089 30.8451 283.473 31.1445C283.857 31.444 284.381 31.5938 285.045 31.5938C285.702 31.5938 286.22 31.4603 286.598 31.1934C286.982 30.9199 287.174 30.5781 287.174 30.168C287.174 29.8164 287.04 29.5332 286.773 29.3184C286.507 29.1035 286.145 28.9473 285.689 28.8496L283.961 28.4688C282.991 28.2539 282.255 27.8991 281.754 27.4043C281.253 26.9095 281.002 26.278 281.002 25.5098C281.002 24.8978 281.168 24.3574 281.5 23.8887C281.832 23.4199 282.298 23.0553 282.896 22.7949C283.495 22.5345 284.192 22.4043 284.986 22.4043C285.761 22.4043 286.445 22.541 287.037 22.8145C287.636 23.0814 288.108 23.4622 288.453 23.957C288.805 24.4453 288.997 25.028 289.029 25.7051L287.066 25.7539C287.047 25.2656 286.852 24.8587 286.48 24.5332C286.116 24.2077 285.624 24.0449 285.006 24.0449C284.42 24.0449 283.951 24.1816 283.6 24.4551C283.248 24.7285 283.072 25.0638 283.072 25.4609C283.072 25.8125 283.206 26.0957 283.473 26.3105C283.74 26.5254 284.111 26.6882 284.586 26.7988L286.344 27.1895C287.346 27.4108 288.085 27.7559 288.561 28.2246C289.036 28.6868 289.273 29.2956 289.273 30.0508C289.273 30.7018 289.091 31.2682 288.727 31.75C288.368 32.2253 287.874 32.5931 287.242 32.8535C286.611 33.1074 285.891 33.2344 285.084 33.2344Z" fill="black"/>
<rect x="322" width="173" height="52" rx="26" fill="white"/>
<g clip-path="url(#clip1_246_1101)">
<path d="M346 26C346.265 26 346.52 26.1054 346.707 26.2929C346.895 26.4804 347 26.7348 347 27V31C347 31.2652 346.895 31.5196 346.707 31.7071C346.52 31.8946 346.265 32 346 32C345.735 32 345.48 31.8946 345.293 31.7071C345.105 31.5196 345 31.2652 345 31V27C345 26.7348 345.105 26.4804 345.293 26.2929C345.48 26.1054 345.735 26 346 26Z" fill="#FE807E"/>
<path d="M350 26C350.265 26 350.52 26.1054 350.707 26.2929C350.895 26.4804 351 26.7348 351 27V31C351 31.2652 350.895 31.5196 350.707 31.7071C350.52 31.8946 350.265 32 350 32C349.735 32 349.48 31.8946 349.293 31.7071C349.105 31.5196 349 31.2652 349 31V27C349 26.7348 349.105 26.4804 349.293 26.2929C349.48 26.1054 349.735 26 350 26Z" fill="#FE807E"/>
<path d="M354 26C354.265 26 354.52 26.1054 354.707 26.2929C354.895 26.4804 355 26.7348 355 27V31C355 31.2652 354.895 31.5196 354.707 31.7071C354.52 31.8946 354.265 32 354 32C353.735 32 353.48 31.8946 353.293 31.7071C353.105 31.5196 353 31.2652 353 31V27C353 26.7348 353.105 26.4804 353.293 26.2929C353.48 26.1054 353.735 26 354 26Z" fill="#FE807E"/>
<path d="M354 16C354.245 16 354.481 16.09 354.664 16.2527C354.847 16.4155 354.964 16.6397 354.993 16.883L355 17V18H356C356.765 18 357.502 18.2923 358.058 18.8173C358.615 19.3422 358.95 20.0601 358.995 20.824L359 21V33C359 33.7652 358.708 34.5015 358.183 35.0583C357.658 35.615 356.94 35.9501 356.176 35.995L356 36H344C343.235 36 342.498 35.7077 341.942 35.1827C341.385 34.6578 341.05 33.9399 341.005 33.176L341 33V21C341 20.2348 341.292 19.4985 341.817 18.9417C342.342 18.385 343.06 18.0499 343.824 18.005L344 18H345V17C345 16.7451 345.098 16.5 345.273 16.3146C345.448 16.1293 345.687 16.0178 345.941 16.0028C346.196 15.9879 346.446 16.0707 346.642 16.2343C346.837 16.3979 346.963 16.6299 346.993 16.883L347 17V18H353V17C353 16.7348 353.105 16.4804 353.293 16.2929C353.48 16.1054 353.735 16 354 16ZM357 23H343V32.625C343 33.33 343.386 33.911 343.883 33.991L344 34H356C356.513 34 356.936 33.47 356.993 32.785L357 32.625V23Z" fill="#FE807E"/>
</g>
<path d="M380.377 33.2344C379.225 33.2344 378.229 33.0391 377.389 32.6484C376.555 32.2513 375.911 31.6914 375.455 30.9688C375.006 30.2396 374.778 29.3704 374.771 28.3613H376.939C376.952 28.9863 377.096 29.5234 377.369 29.9727C377.649 30.4154 378.043 30.7539 378.551 30.9883C379.065 31.2227 379.677 31.3398 380.387 31.3398C381.038 31.3398 381.607 31.2454 382.096 31.0566C382.584 30.8613 382.965 30.5911 383.238 30.2461C383.512 29.8945 383.648 29.4811 383.648 29.0059C383.648 28.6283 383.551 28.3027 383.355 28.0293C383.167 27.7493 382.867 27.5085 382.457 27.3066C382.047 27.0983 381.513 26.9193 380.855 26.7695L379.244 26.3789C377.805 26.0339 376.751 25.5456 376.08 24.9141C375.41 24.2826 375.074 23.4655 375.074 22.4629C375.074 21.61 375.289 20.8678 375.719 20.2363C376.148 19.5983 376.754 19.1035 377.535 18.752C378.316 18.3939 379.225 18.2148 380.26 18.2148C381.295 18.2148 382.197 18.4004 382.965 18.7715C383.733 19.1426 384.332 19.6667 384.762 20.3438C385.191 21.0143 385.419 21.8151 385.445 22.7461H383.336C383.284 21.9258 382.978 21.2845 382.418 20.8223C381.865 20.3535 381.132 20.1191 380.221 20.1191C379.641 20.1191 379.127 20.2135 378.678 20.4023C378.229 20.5911 377.877 20.8548 377.623 21.1934C377.369 21.5319 377.242 21.9193 377.242 22.3555C377.242 22.7135 377.34 23.026 377.535 23.293C377.73 23.5534 378.033 23.7812 378.443 23.9766C378.854 24.1719 379.374 24.3444 380.006 24.4941L381.549 24.8652C382.252 25.0345 382.867 25.2396 383.395 25.4805C383.928 25.7214 384.374 26.0078 384.732 26.3398C385.09 26.6654 385.361 27.043 385.543 27.4727C385.725 27.8958 385.816 28.3743 385.816 28.9082C385.816 29.7741 385.592 30.5326 385.143 31.1836C384.7 31.8346 384.072 32.3392 383.258 32.6973C382.444 33.0553 381.484 33.2344 380.377 33.2344ZM392.203 33.2344C391.22 33.2344 390.357 33.0065 389.615 32.5508C388.873 32.0885 388.297 31.4538 387.887 30.6465C387.477 29.8327 387.271 28.8952 387.271 27.834C387.271 26.7663 387.477 25.8255 387.887 25.0117C388.297 24.1914 388.873 23.5501 389.615 23.0879C390.357 22.6257 391.22 22.3945 392.203 22.3945C392.815 22.3945 393.378 22.4857 393.893 22.668C394.413 22.8503 394.872 23.1074 395.27 23.4395C395.667 23.765 395.989 24.1556 396.236 24.6113C396.49 25.0605 396.653 25.5553 396.725 26.0957L394.674 26.1543C394.622 25.8613 394.527 25.5944 394.391 25.3535C394.26 25.1126 394.091 24.9076 393.883 24.7383C393.674 24.5625 393.43 24.4258 393.15 24.3281C392.877 24.2305 392.564 24.1816 392.213 24.1816C391.614 24.1816 391.1 24.3346 390.67 24.6406C390.247 24.9401 389.921 25.3633 389.693 25.9102C389.472 26.457 389.361 27.0983 389.361 27.834C389.361 28.5566 389.472 29.1914 389.693 29.7383C389.921 30.2786 390.247 30.6986 390.67 30.998C391.1 31.2975 391.614 31.4473 392.213 31.4473C392.564 31.4473 392.877 31.4017 393.15 31.3105C393.424 31.2194 393.658 31.0859 393.854 30.9102C394.055 30.7344 394.221 30.526 394.352 30.2852C394.488 30.0378 394.589 29.7643 394.654 29.4648L396.725 29.5234C396.66 30.0573 396.503 30.5488 396.256 30.998C396.008 31.4473 395.683 31.8411 395.279 32.1797C394.882 32.5117 394.423 32.7721 393.902 32.9609C393.382 33.1432 392.815 33.2344 392.203 33.2344ZM400.621 27.0039V33H398.551V18.4492H400.621V25.1973H400.133C400.465 24.2663 400.93 23.5729 401.529 23.1172C402.135 22.6549 402.867 22.4238 403.727 22.4238C404.436 22.4238 405.071 22.5801 405.631 22.8926C406.197 23.1986 406.643 23.6543 406.969 24.2598C407.294 24.8652 407.457 25.6172 407.457 26.5156V33H405.377V26.7793C405.377 25.9525 405.178 25.3275 404.781 24.9043C404.391 24.4811 403.834 24.2695 403.111 24.2695C402.649 24.2695 402.229 24.3672 401.852 24.5625C401.474 24.7513 401.174 25.0475 400.953 25.4512C400.732 25.8548 400.621 26.3724 400.621 27.0039ZM414.283 33.2344C413.255 33.2344 412.369 33.0033 411.627 32.541C410.891 32.0788 410.325 31.4408 409.928 30.627C409.537 29.8132 409.342 28.8822 409.342 27.834C409.342 26.7728 409.544 25.8353 409.947 25.0215C410.357 24.2012 410.924 23.5599 411.646 23.0977C412.376 22.6289 413.215 22.3945 414.166 22.3945C414.882 22.3945 415.533 22.5215 416.119 22.7754C416.712 23.0293 417.219 23.3939 417.643 23.8691C418.072 24.3444 418.401 24.9141 418.629 25.5781C418.863 26.2422 418.98 26.9811 418.98 27.7949V28.3809H410.299V26.8184H417.896L416.979 27.2969C416.979 26.6523 416.865 26.0924 416.637 25.6172C416.409 25.1419 416.087 24.7741 415.67 24.5137C415.253 24.2533 414.755 24.123 414.176 24.123C413.609 24.123 413.115 24.2533 412.691 24.5137C412.275 24.7741 411.952 25.1419 411.725 25.6172C411.497 26.0859 411.383 26.6361 411.383 27.2676V28.1855C411.383 28.8431 411.497 29.4225 411.725 29.9238C411.952 30.4251 412.285 30.8158 412.721 31.0957C413.163 31.3691 413.694 31.5059 414.312 31.5059C414.755 31.5059 415.146 31.4375 415.484 31.3008C415.829 31.1641 416.116 30.9753 416.344 30.7344C416.578 30.487 416.744 30.1973 416.842 29.8652L418.834 29.9238C418.697 30.5749 418.417 31.151 417.994 31.6523C417.571 32.1471 417.04 32.5345 416.402 32.8145C415.764 33.0944 415.058 33.2344 414.283 33.2344ZM424.811 33.2051C423.919 33.2051 423.134 32.9805 422.457 32.5312C421.786 32.0755 421.266 31.444 420.895 30.6367C420.523 29.8294 420.338 28.8887 420.338 27.8145C420.338 26.7402 420.523 25.7995 420.895 24.9922C421.272 24.1784 421.796 23.5469 422.467 23.0977C423.144 22.6484 423.925 22.4238 424.811 22.4238C425.286 22.4238 425.722 22.4922 426.119 22.6289C426.516 22.7656 426.871 22.9609 427.184 23.2148C427.496 23.4688 427.757 23.778 427.965 24.1426H427.994V18.4492H430.074V33H428.033V31.418H428.004C427.783 31.7956 427.512 32.1178 427.193 32.3848C426.874 32.6517 426.516 32.8568 426.119 33C425.722 33.1367 425.286 33.2051 424.811 33.2051ZM425.24 31.418C425.826 31.418 426.334 31.2682 426.764 30.9688C427.2 30.6693 427.535 30.2493 427.77 29.709C428.004 29.1686 428.121 28.5339 428.121 27.8047C428.121 27.0755 428.004 26.4408 427.77 25.9004C427.535 25.36 427.2 24.9434 426.764 24.6504C426.334 24.3509 425.826 24.2012 425.24 24.2012C424.68 24.2012 424.189 24.3411 423.766 24.6211C423.342 24.901 423.014 25.3112 422.779 25.8516C422.551 26.3854 422.438 27.0365 422.438 27.8047C422.438 28.5729 422.555 29.2272 422.789 29.7676C423.023 30.3079 423.349 30.7181 423.766 30.998C424.189 31.278 424.68 31.418 425.24 31.418ZM436.188 33.1953C435.478 33.1953 434.84 33.0423 434.273 32.7363C433.714 32.4238 433.271 31.9648 432.945 31.3594C432.62 30.7474 432.457 29.9954 432.457 29.1035V22.6191H434.527V28.8496C434.527 29.6634 434.726 30.2852 435.123 30.7148C435.527 31.138 436.083 31.3496 436.793 31.3496C437.262 31.3496 437.685 31.2552 438.062 31.0664C438.44 30.8711 438.736 30.5716 438.951 30.168C439.173 29.7643 439.283 29.2467 439.283 28.6152V22.6191H441.363V33H439.332V30.4219H439.781C439.449 31.3529 438.98 32.0495 438.375 32.5117C437.77 32.9674 437.04 33.1953 436.188 33.1953ZM445.816 18.4492V33H443.746V18.4492H445.816ZM448.199 33V22.6191H450.27V33H448.199ZM449.234 20.8613C448.863 20.8613 448.551 20.7376 448.297 20.4902C448.049 20.2428 447.926 19.9434 447.926 19.5918C447.926 19.2337 448.049 18.9342 448.297 18.6934C448.551 18.446 448.86 18.3223 449.225 18.3223C449.596 18.3223 449.908 18.446 450.162 18.6934C450.416 18.9342 450.543 19.2337 450.543 19.5918C450.543 19.9434 450.416 20.2428 450.162 20.4902C449.908 20.7376 449.599 20.8613 449.234 20.8613ZM454.723 27.0039V33H452.652V22.6191H454.684V25.1973H454.234C454.566 24.2663 455.032 23.5729 455.631 23.1172C456.236 22.6549 456.969 22.4238 457.828 22.4238C458.538 22.4238 459.173 22.5801 459.732 22.8926C460.299 23.1986 460.745 23.6543 461.07 24.2598C461.396 24.8652 461.559 25.6172 461.559 26.5156V33H459.479V26.7793C459.479 25.9525 459.28 25.3275 458.883 24.9043C458.492 24.4811 457.936 24.2695 457.213 24.2695C456.751 24.2695 456.331 24.3672 455.953 24.5625C455.576 24.7513 455.276 25.0475 455.055 25.4512C454.833 25.8548 454.723 26.3724 454.723 27.0039ZM468.453 37.2285C467.607 37.2285 466.865 37.1048 466.227 36.8574C465.589 36.61 465.071 36.2552 464.674 35.793C464.283 35.3307 464.039 34.7741 463.941 34.123L465.963 34.0352C466.061 34.3542 466.22 34.6243 466.441 34.8457C466.669 35.0736 466.952 35.2461 467.291 35.3633C467.63 35.4805 468.014 35.5391 468.443 35.5391C469.283 35.5391 469.938 35.3177 470.406 34.875C470.882 34.4388 471.119 33.804 471.119 32.9707V31.3398H471.09C470.868 31.7174 470.602 32.0397 470.289 32.3066C469.977 32.5671 469.622 32.7656 469.225 32.9023C468.834 33.0326 468.398 33.0977 467.916 33.0977C467.031 33.0977 466.249 32.8763 465.572 32.4336C464.895 31.9844 464.371 31.3626 464 30.5684C463.629 29.7676 463.443 28.8398 463.443 27.7852C463.443 26.7174 463.629 25.7832 464 24.9824C464.378 24.1751 464.902 23.5469 465.572 23.0977C466.249 22.6484 467.031 22.4238 467.916 22.4238C468.391 22.4238 468.827 22.4922 469.225 22.6289C469.628 22.7656 469.99 22.9674 470.309 23.2344C470.628 23.5013 470.898 23.8268 471.119 24.2109H471.139V22.6191H473.18V32.9023C473.18 33.931 472.968 34.7611 472.545 35.3926C472.122 36.0306 471.552 36.4961 470.836 36.7891C470.12 37.082 469.326 37.2285 468.453 37.2285ZM468.346 31.3301C468.932 31.3301 469.439 31.1836 469.869 30.8906C470.305 30.5977 470.641 30.1842 470.875 29.6504C471.109 29.1165 471.227 28.4883 471.227 27.7656C471.227 27.043 471.109 26.4147 470.875 25.8809C470.641 25.3405 470.309 24.9238 469.879 24.6309C469.449 24.3314 468.938 24.1816 468.346 24.1816C467.786 24.1816 467.294 24.3216 466.871 24.6016C466.454 24.8815 466.129 25.2884 465.895 25.8223C465.66 26.3561 465.543 27.0039 465.543 27.7656C465.543 28.5273 465.66 29.1751 465.895 29.709C466.129 30.2428 466.454 30.6465 466.871 30.9199C467.294 31.1934 467.786 31.3301 468.346 31.3301Z" fill="black"/>
<rect x="30.5" y="64" width="255" height="52" rx="26" fill="white"/>
<g clip-path="url(#clip2_246_1101)">
<path d="M58.5 80C60.7902 79.9968 63.0116 80.7829 64.79 82.226C64.9023 82.317 64.9936 82.4312 65.0575 82.5608C65.1214 82.6904 65.1565 82.8323 65.1603 82.9768C65.1641 83.1213 65.1365 83.2648 65.0795 83.3976C65.0225 83.5304 64.9374 83.6493 64.83 83.746L63.32 85.108C63.1485 85.2625 62.9288 85.3528 62.6982 85.3638C62.4676 85.3747 62.2404 85.3055 62.055 85.168C61.0382 84.4207 59.8118 84.013 58.55 84.0028C57.2882 83.9927 56.0553 84.3806 55.0266 85.1114C53.9979 85.8422 53.2259 86.8788 52.8202 88.0736C52.4145 89.2685 52.3958 90.5608 52.7669 91.7669C53.1379 92.9729 53.8797 94.0313 54.8869 94.7915C55.894 95.5517 57.1152 95.9751 58.3767 96.0013C59.6383 96.0276 60.8761 95.6555 61.914 94.9378C62.9519 94.2202 63.7371 93.1936 64.158 92.004L64.159 92H60.499C60.2542 91.9997 60.0181 91.9097 59.8353 91.747C59.6524 91.5842 59.5356 91.3601 59.507 91.117L59.5 91V89C59.5 88.7348 59.6054 88.4804 59.7929 88.2929C59.9804 88.1054 60.2348 88 60.5 88H67.445C67.6912 88 67.9287 88.0908 68.1121 88.255C68.2955 88.4192 68.4119 88.6453 68.439 88.89C68.479 89.257 68.5 89.627 68.5 90C68.5 95.523 64.023 100 58.5 100C52.977 100 48.5 95.523 48.5 90C48.5 84.477 52.977 80 58.5 80Z" fill="#0077FF"/>
</g>
<path d="M90.0879 97.2344C88.7598 97.2344 87.5879 96.9219 86.5723 96.2969C85.5566 95.6654 84.7624 94.7865 84.1895 93.6602C83.6165 92.5339 83.3301 91.2253 83.3301 89.7344C83.3301 88.2305 83.6133 86.9154 84.1797 85.7891C84.7526 84.6628 85.5469 83.7871 86.5625 83.1621C87.5846 82.5306 88.7598 82.2148 90.0879 82.2148C90.8757 82.2148 91.6113 82.332 92.2949 82.5664C92.985 82.8008 93.6003 83.1393 94.1406 83.582C94.681 84.0247 95.127 84.5586 95.4785 85.1836C95.8366 85.8021 96.0807 86.502 96.2109 87.2832H93.9941C93.89 86.7884 93.7207 86.3522 93.4863 85.9746C93.252 85.5905 92.9655 85.2682 92.627 85.0078C92.2884 84.7409 91.9043 84.5423 91.4746 84.4121C91.0514 84.2754 90.5957 84.207 90.1074 84.207C89.1634 84.207 88.3464 84.4382 87.6562 84.9004C86.9727 85.3561 86.4421 85.9974 86.0645 86.8242C85.6934 87.651 85.5078 88.6211 85.5078 89.7344C85.5078 90.8411 85.6934 91.8079 86.0645 92.6348C86.4421 93.4551 86.9727 94.0964 87.6562 94.5586C88.3464 95.0143 89.1634 95.2422 90.1074 95.2422C90.5957 95.2422 91.0514 95.1771 91.4746 95.0469C91.8978 94.9102 92.2786 94.7116 92.6172 94.4512C92.9557 94.1908 93.2422 93.8717 93.4766 93.4941C93.7174 93.11 93.8932 92.6738 94.0039 92.1855H96.2109C96.0872 92.9538 95.8464 93.6471 95.4883 94.2656C95.1367 94.8841 94.6908 95.4147 94.1504 95.8574C93.61 96.3001 92.9948 96.6419 92.3047 96.8828C91.6211 97.1172 90.8822 97.2344 90.0879 97.2344ZM101.318 97.166C100.635 97.166 100.023 97.0488 99.4824 96.8145C98.9421 96.5801 98.5156 96.2318 98.2031 95.7695C97.8906 95.3008 97.7344 94.7246 97.7344 94.041C97.7344 93.4421 97.8451 92.9538 98.0664 92.5762C98.2943 92.1986 98.6003 91.8991 98.9844 91.6777C99.375 91.4564 99.8145 91.2904 100.303 91.1797C100.791 91.0625 101.296 90.9746 101.816 90.916C102.467 90.8314 102.982 90.7663 103.359 90.7207C103.737 90.6686 104.007 90.5905 104.17 90.4863C104.339 90.3757 104.424 90.1966 104.424 89.9492V89.8613C104.424 89.5163 104.339 89.2135 104.17 88.9531C104.007 88.6927 103.77 88.4909 103.457 88.3477C103.151 88.1979 102.777 88.123 102.334 88.123C101.891 88.123 101.501 88.1947 101.162 88.3379C100.83 88.4811 100.563 88.6764 100.361 88.9238C100.166 89.1712 100.052 89.4512 100.02 89.7637L97.9883 89.7051C98.0469 89.0475 98.265 88.4746 98.6426 87.9863C99.0202 87.4915 99.5247 87.1074 100.156 86.834C100.788 86.5605 101.52 86.4238 102.354 86.4238C102.965 86.4238 103.525 86.502 104.033 86.6582C104.541 86.8145 104.974 87.0423 105.332 87.3418C105.697 87.6413 105.977 88.0059 106.172 88.4355C106.374 88.8652 106.475 89.3568 106.475 89.9102V97H104.434V95.5352H104.395C104.251 95.8151 104.053 96.0788 103.799 96.3262C103.545 96.5736 103.216 96.7754 102.812 96.9316C102.409 97.0879 101.911 97.166 101.318 97.166ZM101.748 95.5059C102.354 95.5059 102.855 95.3952 103.252 95.1738C103.649 94.9525 103.942 94.6628 104.131 94.3047C104.326 93.9466 104.424 93.556 104.424 93.1328V91.9023C104.352 91.9609 104.232 92.0163 104.062 92.0684C103.9 92.1139 103.701 92.1595 103.467 92.2051C103.232 92.2507 102.982 92.2962 102.715 92.3418C102.454 92.3809 102.194 92.4199 101.934 92.459C101.556 92.5111 101.204 92.599 100.879 92.7227C100.553 92.8398 100.29 93.0059 100.088 93.2207C99.8861 93.4355 99.7852 93.7188 99.7852 94.0703C99.7852 94.3698 99.8665 94.627 100.029 94.8418C100.192 95.0566 100.42 95.2227 100.713 95.3398C101.006 95.4505 101.351 95.5059 101.748 95.5059ZM110.938 82.4492V97H108.867V82.4492H110.938ZM117.764 97.2344C116.735 97.2344 115.85 97.0033 115.107 96.541C114.372 96.0788 113.805 95.4408 113.408 94.627C113.018 93.8132 112.822 92.8822 112.822 91.834C112.822 90.7728 113.024 89.8353 113.428 89.0215C113.838 88.2012 114.404 87.5599 115.127 87.0977C115.856 86.6289 116.696 86.3945 117.646 86.3945C118.363 86.3945 119.014 86.5215 119.6 86.7754C120.192 87.0293 120.7 87.3939 121.123 87.8691C121.553 88.3444 121.882 88.9141 122.109 89.5781C122.344 90.2422 122.461 90.9811 122.461 91.7949V92.3809H113.779V90.8184H121.377L120.459 91.2969C120.459 90.6523 120.345 90.0924 120.117 89.6172C119.889 89.1419 119.567 88.7741 119.15 88.5137C118.734 88.2533 118.236 88.123 117.656 88.123C117.09 88.123 116.595 88.2533 116.172 88.5137C115.755 88.7741 115.433 89.1419 115.205 89.6172C114.977 90.0859 114.863 90.6361 114.863 91.2676V92.1855C114.863 92.8431 114.977 93.4225 115.205 93.9238C115.433 94.4251 115.765 94.8158 116.201 95.0957C116.644 95.3691 117.174 95.5059 117.793 95.5059C118.236 95.5059 118.626 95.4375 118.965 95.3008C119.31 95.1641 119.596 94.9753 119.824 94.7344C120.059 94.487 120.225 94.1973 120.322 93.8652L122.314 93.9238C122.178 94.5749 121.898 95.151 121.475 95.6523C121.051 96.1471 120.521 96.5345 119.883 96.8145C119.245 97.0944 118.538 97.2344 117.764 97.2344ZM126.387 91.0039V97H124.316V86.6191H126.348V89.1973H125.898C126.23 88.2663 126.696 87.5729 127.295 87.1172C127.9 86.6549 128.633 86.4238 129.492 86.4238C130.202 86.4238 130.837 86.5801 131.396 86.8926C131.963 87.1986 132.409 87.6543 132.734 88.2598C133.06 88.8652 133.223 89.6172 133.223 90.5156V97H131.143V90.7793C131.143 89.9525 130.944 89.3275 130.547 88.9043C130.156 88.4811 129.6 88.2695 128.877 88.2695C128.415 88.2695 127.995 88.3672 127.617 88.5625C127.24 88.7513 126.94 89.0475 126.719 89.4512C126.497 89.8548 126.387 90.3724 126.387 91.0039ZM139.58 97.2051C138.688 97.2051 137.904 96.9805 137.227 96.5312C136.556 96.0755 136.035 95.444 135.664 94.6367C135.293 93.8294 135.107 92.8887 135.107 91.8145C135.107 90.7402 135.293 89.7995 135.664 88.9922C136.042 88.1784 136.566 87.5469 137.236 87.0977C137.913 86.6484 138.695 86.4238 139.58 86.4238C140.055 86.4238 140.492 86.4922 140.889 86.6289C141.286 86.7656 141.641 86.9609 141.953 87.2148C142.266 87.4688 142.526 87.778 142.734 88.1426H142.764V82.4492H144.844V97H142.803V95.418H142.773C142.552 95.7956 142.282 96.1178 141.963 96.3848C141.644 96.6517 141.286 96.8568 140.889 97C140.492 97.1367 140.055 97.2051 139.58 97.2051ZM140.01 95.418C140.596 95.418 141.104 95.2682 141.533 94.9688C141.969 94.6693 142.305 94.2493 142.539 93.709C142.773 93.1686 142.891 92.5339 142.891 91.8047C142.891 91.0755 142.773 90.4408 142.539 89.9004C142.305 89.36 141.969 88.9434 141.533 88.6504C141.104 88.3509 140.596 88.2012 140.01 88.2012C139.45 88.2012 138.958 88.3411 138.535 88.6211C138.112 88.901 137.783 89.3112 137.549 89.8516C137.321 90.3854 137.207 91.0365 137.207 91.8047C137.207 92.5729 137.324 93.2272 137.559 93.7676C137.793 94.3079 138.118 94.7181 138.535 94.998C138.958 95.278 139.45 95.418 140.01 95.418ZM150.361 97.166C149.678 97.166 149.066 97.0488 148.525 96.8145C147.985 96.5801 147.559 96.2318 147.246 95.7695C146.934 95.3008 146.777 94.7246 146.777 94.041C146.777 93.4421 146.888 92.9538 147.109 92.5762C147.337 92.1986 147.643 91.8991 148.027 91.6777C148.418 91.4564 148.857 91.2904 149.346 91.1797C149.834 91.0625 150.339 90.9746 150.859 90.916C151.51 90.8314 152.025 90.7663 152.402 90.7207C152.78 90.6686 153.05 90.5905 153.213 90.4863C153.382 90.3757 153.467 90.1966 153.467 89.9492V89.8613C153.467 89.5163 153.382 89.2135 153.213 88.9531C153.05 88.6927 152.812 88.4909 152.5 88.3477C152.194 88.1979 151.82 88.123 151.377 88.123C150.934 88.123 150.544 88.1947 150.205 88.3379C149.873 88.4811 149.606 88.6764 149.404 88.9238C149.209 89.1712 149.095 89.4512 149.062 89.7637L147.031 89.7051C147.09 89.0475 147.308 88.4746 147.686 87.9863C148.063 87.4915 148.568 87.1074 149.199 86.834C149.831 86.5605 150.563 86.4238 151.396 86.4238C152.008 86.4238 152.568 86.502 153.076 86.6582C153.584 86.8145 154.017 87.0423 154.375 87.3418C154.74 87.6413 155.02 88.0059 155.215 88.4355C155.417 88.8652 155.518 89.3568 155.518 89.9102V97H153.477V95.5352H153.438C153.294 95.8151 153.096 96.0788 152.842 96.3262C152.588 96.5736 152.259 96.7754 151.855 96.9316C151.452 97.0879 150.954 97.166 150.361 97.166ZM150.791 95.5059C151.396 95.5059 151.898 95.3952 152.295 95.1738C152.692 94.9525 152.985 94.6628 153.174 94.3047C153.369 93.9466 153.467 93.556 153.467 93.1328V91.9023C153.395 91.9609 153.275 92.0163 153.105 92.0684C152.943 92.1139 152.744 92.1595 152.51 92.2051C152.275 92.2507 152.025 92.2962 151.758 92.3418C151.497 92.3809 151.237 92.4199 150.977 92.459C150.599 92.5111 150.247 92.599 149.922 92.7227C149.596 92.8398 149.333 93.0059 149.131 93.2207C148.929 93.4355 148.828 93.7188 148.828 94.0703C148.828 94.3698 148.91 94.627 149.072 94.8418C149.235 95.0566 149.463 95.2227 149.756 95.3398C150.049 95.4505 150.394 95.5059 150.791 95.5059ZM157.91 97V86.6191H159.902V88.2988H159.941C160.137 87.7324 160.443 87.2897 160.859 86.9707C161.276 86.6517 161.813 86.4922 162.471 86.4922C162.62 86.4922 162.764 86.4987 162.9 86.5117C163.037 86.5182 163.148 86.528 163.232 86.541V88.4746C163.154 88.4616 163.011 88.4421 162.803 88.416C162.601 88.39 162.38 88.377 162.139 88.377C161.748 88.377 161.387 88.4681 161.055 88.6504C160.729 88.8327 160.469 89.1061 160.273 89.4707C160.078 89.8353 159.98 90.2943 159.98 90.8477V97H157.91ZM169.629 97V86.6191H171.699V97H169.629ZM170.664 84.8613C170.293 84.8613 169.98 84.7376 169.727 84.4902C169.479 84.2428 169.355 83.9434 169.355 83.5918C169.355 83.2337 169.479 82.9342 169.727 82.6934C169.98 82.446 170.29 82.3223 170.654 82.3223C171.025 82.3223 171.338 82.446 171.592 82.6934C171.846 82.9342 171.973 83.2337 171.973 83.5918C171.973 83.9434 171.846 84.2428 171.592 84.4902C171.338 84.7376 171.029 84.8613 170.664 84.8613ZM176.152 91.0039V97H174.082V86.6191H176.113V89.1973H175.664C175.996 88.2663 176.462 87.5729 177.061 87.1172C177.666 86.6549 178.398 86.4238 179.258 86.4238C179.967 86.4238 180.602 86.5801 181.162 86.8926C181.729 87.1986 182.174 87.6543 182.5 88.2598C182.826 88.8652 182.988 89.6172 182.988 90.5156V97H180.908V90.7793C180.908 89.9525 180.71 89.3275 180.312 88.9043C179.922 88.4811 179.365 88.2695 178.643 88.2695C178.18 88.2695 177.76 88.3672 177.383 88.5625C177.005 88.7513 176.706 89.0475 176.484 89.4512C176.263 89.8548 176.152 90.3724 176.152 91.0039ZM190.312 86.6191V88.3281H184.336V86.6191H190.312ZM186.133 83.8359H188.203V94.2461C188.203 94.6367 188.285 94.9102 188.447 95.0664C188.61 95.2227 188.896 95.3008 189.307 95.3008C189.456 95.3008 189.626 95.3008 189.814 95.3008C190.003 95.2943 190.166 95.291 190.303 95.291L190.342 96.9902C190.166 96.9967 189.958 97.0033 189.717 97.0098C189.476 97.0163 189.245 97.0195 189.023 97.0195C188.053 97.0195 187.327 96.8112 186.846 96.3945C186.37 95.9714 186.133 95.3398 186.133 94.5V83.8359ZM196.455 97.2344C195.426 97.2344 194.541 97.0033 193.799 96.541C193.063 96.0788 192.497 95.4408 192.1 94.627C191.709 93.8132 191.514 92.8822 191.514 91.834C191.514 90.7728 191.715 89.8353 192.119 89.0215C192.529 88.2012 193.096 87.5599 193.818 87.0977C194.548 86.6289 195.387 86.3945 196.338 86.3945C197.054 86.3945 197.705 86.5215 198.291 86.7754C198.883 87.0293 199.391 87.3939 199.814 87.8691C200.244 88.3444 200.573 88.9141 200.801 89.5781C201.035 90.2422 201.152 90.9811 201.152 91.7949V92.3809H192.471V90.8184H200.068L199.15 91.2969C199.15 90.6523 199.036 90.0924 198.809 89.6172C198.581 89.1419 198.258 88.7741 197.842 88.5137C197.425 88.2533 196.927 88.123 196.348 88.123C195.781 88.123 195.286 88.2533 194.863 88.5137C194.447 88.7741 194.124 89.1419 193.896 89.6172C193.669 90.0859 193.555 90.6361 193.555 91.2676V92.1855C193.555 92.8431 193.669 93.4225 193.896 93.9238C194.124 94.4251 194.456 94.8158 194.893 95.0957C195.335 95.3691 195.866 95.5059 196.484 95.5059C196.927 95.5059 197.318 95.4375 197.656 95.3008C198.001 95.1641 198.288 94.9753 198.516 94.7344C198.75 94.487 198.916 94.1973 199.014 93.8652L201.006 93.9238C200.869 94.5749 200.589 95.151 200.166 95.6523C199.743 96.1471 199.212 96.5345 198.574 96.8145C197.936 97.0944 197.23 97.2344 196.455 97.2344ZM207.52 101.229C206.673 101.229 205.931 101.105 205.293 100.857C204.655 100.61 204.137 100.255 203.74 99.793C203.35 99.3307 203.105 98.7741 203.008 98.123L205.029 98.0352C205.127 98.3542 205.286 98.6243 205.508 98.8457C205.736 99.0736 206.019 99.2461 206.357 99.3633C206.696 99.4805 207.08 99.5391 207.51 99.5391C208.35 99.5391 209.004 99.3177 209.473 98.875C209.948 98.4388 210.186 97.804 210.186 96.9707V95.3398H210.156C209.935 95.7174 209.668 96.0397 209.355 96.3066C209.043 96.5671 208.688 96.7656 208.291 96.9023C207.9 97.0326 207.464 97.0977 206.982 97.0977C206.097 97.0977 205.316 96.8763 204.639 96.4336C203.962 95.9844 203.438 95.3626 203.066 94.5684C202.695 93.7676 202.51 92.8398 202.51 91.7852C202.51 90.7174 202.695 89.7832 203.066 88.9824C203.444 88.1751 203.968 87.5469 204.639 87.0977C205.316 86.6484 206.097 86.4238 206.982 86.4238C207.458 86.4238 207.894 86.4922 208.291 86.6289C208.695 86.7656 209.056 86.9674 209.375 87.2344C209.694 87.5013 209.964 87.8268 210.186 88.2109H210.205V86.6191H212.246V96.9023C212.246 97.931 212.035 98.7611 211.611 99.3926C211.188 100.031 210.618 100.496 209.902 100.789C209.186 101.082 208.392 101.229 207.52 101.229ZM207.412 95.3301C207.998 95.3301 208.506 95.1836 208.936 94.8906C209.372 94.5977 209.707 94.1842 209.941 93.6504C210.176 93.1165 210.293 92.4883 210.293 91.7656C210.293 91.043 210.176 90.4147 209.941 89.8809C209.707 89.3405 209.375 88.9238 208.945 88.6309C208.516 88.3314 208.005 88.1816 207.412 88.1816C206.852 88.1816 206.361 88.3216 205.938 88.6016C205.521 88.8815 205.195 89.2884 204.961 89.8223C204.727 90.3561 204.609 91.0039 204.609 91.7656C204.609 92.5273 204.727 93.1751 204.961 93.709C205.195 94.2428 205.521 94.6465 205.938 94.9199C206.361 95.1934 206.852 95.3301 207.412 95.3301ZM214.629 97V86.6191H216.621V88.2988H216.66C216.855 87.7324 217.161 87.2897 217.578 86.9707C217.995 86.6517 218.532 86.4922 219.189 86.4922C219.339 86.4922 219.482 86.4987 219.619 86.5117C219.756 86.5182 219.867 86.528 219.951 86.541V88.4746C219.873 88.4616 219.73 88.4421 219.521 88.416C219.32 88.39 219.098 88.377 218.857 88.377C218.467 88.377 218.105 88.4681 217.773 88.6504C217.448 88.8327 217.188 89.1061 216.992 89.4707C216.797 89.8353 216.699 90.2943 216.699 90.8477V97H214.629ZM224.658 97.166C223.975 97.166 223.363 97.0488 222.822 96.8145C222.282 96.5801 221.855 96.2318 221.543 95.7695C221.23 95.3008 221.074 94.7246 221.074 94.041C221.074 93.4421 221.185 92.9538 221.406 92.5762C221.634 92.1986 221.94 91.8991 222.324 91.6777C222.715 91.4564 223.154 91.2904 223.643 91.1797C224.131 91.0625 224.635 90.9746 225.156 90.916C225.807 90.8314 226.322 90.7663 226.699 90.7207C227.077 90.6686 227.347 90.5905 227.51 90.4863C227.679 90.3757 227.764 90.1966 227.764 89.9492V89.8613C227.764 89.5163 227.679 89.2135 227.51 88.9531C227.347 88.6927 227.109 88.4909 226.797 88.3477C226.491 88.1979 226.117 88.123 225.674 88.123C225.231 88.123 224.84 88.1947 224.502 88.3379C224.17 88.4811 223.903 88.6764 223.701 88.9238C223.506 89.1712 223.392 89.4512 223.359 89.7637L221.328 89.7051C221.387 89.0475 221.605 88.4746 221.982 87.9863C222.36 87.4915 222.865 87.1074 223.496 86.834C224.128 86.5605 224.86 86.4238 225.693 86.4238C226.305 86.4238 226.865 86.502 227.373 86.6582C227.881 86.8145 228.314 87.0423 228.672 87.3418C229.036 87.6413 229.316 88.0059 229.512 88.4355C229.714 88.8652 229.814 89.3568 229.814 89.9102V97H227.773V95.5352H227.734C227.591 95.8151 227.393 96.0788 227.139 96.3262C226.885 96.5736 226.556 96.7754 226.152 96.9316C225.749 97.0879 225.251 97.166 224.658 97.166ZM225.088 95.5059C225.693 95.5059 226.195 95.3952 226.592 95.1738C226.989 94.9525 227.282 94.6628 227.471 94.3047C227.666 93.9466 227.764 93.556 227.764 93.1328V91.9023C227.692 91.9609 227.572 92.0163 227.402 92.0684C227.24 92.1139 227.041 92.1595 226.807 92.2051C226.572 92.2507 226.322 92.2962 226.055 92.3418C225.794 92.3809 225.534 92.4199 225.273 92.459C224.896 92.5111 224.544 92.599 224.219 92.7227C223.893 92.8398 223.63 93.0059 223.428 93.2207C223.226 93.4355 223.125 93.7188 223.125 94.0703C223.125 94.3698 223.206 94.627 223.369 94.8418C223.532 95.0566 223.76 95.2227 224.053 95.3398C224.346 95.4505 224.691 95.5059 225.088 95.5059ZM237.148 86.6191V88.3281H231.172V86.6191H237.148ZM232.969 83.8359H235.039V94.2461C235.039 94.6367 235.12 94.9102 235.283 95.0664C235.446 95.2227 235.732 95.3008 236.143 95.3008C236.292 95.3008 236.462 95.3008 236.65 95.3008C236.839 95.2943 237.002 95.291 237.139 95.291L237.178 96.9902C237.002 96.9967 236.794 97.0033 236.553 97.0098C236.312 97.0163 236.081 97.0195 235.859 97.0195C234.889 97.0195 234.163 96.8112 233.682 96.3945C233.206 95.9714 232.969 95.3398 232.969 94.5V83.8359ZM238.848 97V86.6191H240.918V97H238.848ZM239.883 84.8613C239.512 84.8613 239.199 84.7376 238.945 84.4902C238.698 84.2428 238.574 83.9434 238.574 83.5918C238.574 83.2337 238.698 82.9342 238.945 82.6934C239.199 82.446 239.508 82.3223 239.873 82.3223C240.244 82.3223 240.557 82.446 240.811 82.6934C241.064 82.9342 241.191 83.2337 241.191 83.5918C241.191 83.9434 241.064 84.2428 240.811 84.4902C240.557 84.7376 240.247 84.8613 239.883 84.8613ZM247.754 97.2344C246.771 97.2344 245.905 97.0065 245.156 96.5508C244.414 96.0951 243.835 95.4603 243.418 94.6465C243.008 93.8327 242.803 92.8952 242.803 91.834C242.803 90.7598 243.008 89.8158 243.418 89.002C243.835 88.1882 244.414 87.5501 245.156 87.0879C245.905 86.6257 246.771 86.3945 247.754 86.3945C248.743 86.3945 249.609 86.6257 250.352 87.0879C251.094 87.5501 251.67 88.1882 252.08 89.002C252.497 89.8158 252.705 90.7598 252.705 91.834C252.705 92.8952 252.497 93.8327 252.08 94.6465C251.67 95.4603 251.094 96.0951 250.352 96.5508C249.609 97.0065 248.743 97.2344 247.754 97.2344ZM247.754 95.4473C248.353 95.4473 248.864 95.2975 249.287 94.998C249.717 94.6986 250.042 94.2786 250.264 93.7383C250.492 93.1914 250.605 92.5566 250.605 91.834C250.605 91.0983 250.492 90.4603 250.264 89.9199C250.042 89.373 249.717 88.9466 249.287 88.6406C248.864 88.3346 248.353 88.1816 247.754 88.1816C247.161 88.1816 246.65 88.3346 246.221 88.6406C245.791 88.9401 245.462 89.3633 245.234 89.9102C245.007 90.457 244.893 91.0983 244.893 91.834C244.893 92.5632 245.007 93.1979 245.234 93.7383C245.462 94.2786 245.788 94.6986 246.211 94.998C246.641 95.2975 247.155 95.4473 247.754 95.4473ZM256.66 91.0039V97H254.59V86.6191H256.621V89.1973H256.172C256.504 88.2663 256.969 87.5729 257.568 87.1172C258.174 86.6549 258.906 86.4238 259.766 86.4238C260.475 86.4238 261.11 86.5801 261.67 86.8926C262.236 87.1986 262.682 87.6543 263.008 88.2598C263.333 88.8652 263.496 89.6172 263.496 90.5156V97H261.416V90.7793C261.416 89.9525 261.217 89.3275 260.82 88.9043C260.43 88.4811 259.873 88.2695 259.15 88.2695C258.688 88.2695 258.268 88.3672 257.891 88.5625C257.513 88.7513 257.214 89.0475 256.992 89.4512C256.771 89.8548 256.66 90.3724 256.66 91.0039Z" fill="black"/>
<rect x="297.5" y="64" width="259" height="52" rx="26" fill="white"/>
<g clip-path="url(#clip3_246_1101)">
<path d="M325.5 80C326.489 80 327.456 80.2932 328.278 80.8427C329.1 81.3921 329.741 82.173 330.119 83.0866C330.498 84.0002 330.597 85.0055 330.404 85.9755C330.211 86.9454 329.735 87.8363 329.036 88.5355C328.336 89.2348 327.445 89.711 326.475 89.9039C325.506 90.0969 324.5 89.9978 323.587 89.6194C322.673 89.241 321.892 88.6001 321.343 87.7779C320.793 86.9556 320.5 85.9889 320.5 85L320.505 84.783C320.561 83.4958 321.112 82.2798 322.042 81.3887C322.973 80.4975 324.212 80.0001 325.5 80Z" fill="#0DCD30"/>
<path d="M327.5 92C328.826 92 330.098 92.5268 331.036 93.4645C331.973 94.4021 332.5 95.6739 332.5 97V98C332.5 98.5304 332.289 99.0391 331.914 99.4142C331.539 99.7893 331.03 100 330.5 100H320.5C319.97 100 319.461 99.7893 319.086 99.4142C318.711 99.0391 318.5 98.5304 318.5 98V97C318.5 95.6739 319.027 94.4021 319.964 93.4645C320.902 92.5268 322.174 92 323.5 92H327.5Z" fill="#0DCD30"/>
</g>
<path d="M350.857 97V82.4492H356.229C357.277 82.4492 358.178 82.638 358.934 83.0156C359.695 83.3867 360.278 83.9141 360.682 84.5977C361.092 85.2747 361.297 86.0755 361.297 87C361.297 87.9245 361.089 88.7285 360.672 89.4121C360.255 90.0957 359.663 90.6263 358.895 91.0039C358.126 91.3815 357.218 91.5703 356.17 91.5703H352.049V89.6855H356.111C356.749 89.6855 357.293 89.5781 357.742 89.3633C358.191 89.1419 358.536 88.8294 358.777 88.4258C359.018 88.0221 359.139 87.5469 359.139 87C359.139 86.4531 359.018 85.9811 358.777 85.584C358.536 85.1868 358.191 84.8809 357.742 84.666C357.293 84.4447 356.749 84.334 356.111 84.334H353.035V97H350.857ZM366.248 97.166C365.564 97.166 364.952 97.0488 364.412 96.8145C363.872 96.5801 363.445 96.2318 363.133 95.7695C362.82 95.3008 362.664 94.7246 362.664 94.041C362.664 93.4421 362.775 92.9538 362.996 92.5762C363.224 92.1986 363.53 91.8991 363.914 91.6777C364.305 91.4564 364.744 91.2904 365.232 91.1797C365.721 91.0625 366.225 90.9746 366.746 90.916C367.397 90.8314 367.911 90.7663 368.289 90.7207C368.667 90.6686 368.937 90.5905 369.1 90.4863C369.269 90.3757 369.354 90.1966 369.354 89.9492V89.8613C369.354 89.5163 369.269 89.2135 369.1 88.9531C368.937 88.6927 368.699 88.4909 368.387 88.3477C368.081 88.1979 367.706 88.123 367.264 88.123C366.821 88.123 366.43 88.1947 366.092 88.3379C365.76 88.4811 365.493 88.6764 365.291 88.9238C365.096 89.1712 364.982 89.4512 364.949 89.7637L362.918 89.7051C362.977 89.0475 363.195 88.4746 363.572 87.9863C363.95 87.4915 364.454 87.1074 365.086 86.834C365.717 86.5605 366.45 86.4238 367.283 86.4238C367.895 86.4238 368.455 86.502 368.963 86.6582C369.471 86.8145 369.904 87.0423 370.262 87.3418C370.626 87.6413 370.906 88.0059 371.102 88.4355C371.303 88.8652 371.404 89.3568 371.404 89.9102V97H369.363V95.5352H369.324C369.181 95.8151 368.982 96.0788 368.729 96.3262C368.475 96.5736 368.146 96.7754 367.742 96.9316C367.339 97.0879 366.84 97.166 366.248 97.166ZM366.678 95.5059C367.283 95.5059 367.785 95.3952 368.182 95.1738C368.579 94.9525 368.872 94.6628 369.061 94.3047C369.256 93.9466 369.354 93.556 369.354 93.1328V91.9023C369.282 91.9609 369.161 92.0163 368.992 92.0684C368.829 92.1139 368.631 92.1595 368.396 92.2051C368.162 92.2507 367.911 92.2962 367.645 92.3418C367.384 92.3809 367.124 92.4199 366.863 92.459C366.486 92.5111 366.134 92.599 365.809 92.7227C365.483 92.8398 365.219 93.0059 365.018 93.2207C364.816 93.4355 364.715 93.7188 364.715 94.0703C364.715 94.3698 364.796 94.627 364.959 94.8418C365.122 95.0566 365.35 95.2227 365.643 95.3398C365.936 95.4505 366.281 95.5059 366.678 95.5059ZM378.738 86.6191V88.3281H372.762V86.6191H378.738ZM374.559 83.8359H376.629V94.2461C376.629 94.6367 376.71 94.9102 376.873 95.0664C377.036 95.2227 377.322 95.3008 377.732 95.3008C377.882 95.3008 378.051 95.3008 378.24 95.3008C378.429 95.2943 378.592 95.291 378.729 95.291L378.768 96.9902C378.592 96.9967 378.383 97.0033 378.143 97.0098C377.902 97.0163 377.671 97.0195 377.449 97.0195C376.479 97.0195 375.753 96.8112 375.271 96.3945C374.796 95.9714 374.559 95.3398 374.559 94.5V83.8359ZM380.438 97V86.6191H382.508V97H380.438ZM381.473 84.8613C381.102 84.8613 380.789 84.7376 380.535 84.4902C380.288 84.2428 380.164 83.9434 380.164 83.5918C380.164 83.2337 380.288 82.9342 380.535 82.6934C380.789 82.446 381.098 82.3223 381.463 82.3223C381.834 82.3223 382.146 82.446 382.4 82.6934C382.654 82.9342 382.781 83.2337 382.781 83.5918C382.781 83.9434 382.654 84.2428 382.4 84.4902C382.146 84.7376 381.837 84.8613 381.473 84.8613ZM389.334 97.2344C388.305 97.2344 387.42 97.0033 386.678 96.541C385.942 96.0788 385.376 95.4408 384.979 94.627C384.588 93.8132 384.393 92.8822 384.393 91.834C384.393 90.7728 384.594 89.8353 384.998 89.0215C385.408 88.2012 385.975 87.5599 386.697 87.0977C387.426 86.6289 388.266 86.3945 389.217 86.3945C389.933 86.3945 390.584 86.5215 391.17 86.7754C391.762 87.0293 392.27 87.3939 392.693 87.8691C393.123 88.3444 393.452 88.9141 393.68 89.5781C393.914 90.2422 394.031 90.9811 394.031 91.7949V92.3809H385.35V90.8184H392.947L392.029 91.2969C392.029 90.6523 391.915 90.0924 391.688 89.6172C391.46 89.1419 391.137 88.7741 390.721 88.5137C390.304 88.2533 389.806 88.123 389.227 88.123C388.66 88.123 388.165 88.2533 387.742 88.5137C387.326 88.7741 387.003 89.1419 386.775 89.6172C386.548 90.0859 386.434 90.6361 386.434 91.2676V92.1855C386.434 92.8431 386.548 93.4225 386.775 93.9238C387.003 94.4251 387.335 94.8158 387.771 95.0957C388.214 95.3691 388.745 95.5059 389.363 95.5059C389.806 95.5059 390.197 95.4375 390.535 95.3008C390.88 95.1641 391.167 94.9753 391.395 94.7344C391.629 94.487 391.795 94.1973 391.893 93.8652L393.885 93.9238C393.748 94.5749 393.468 95.151 393.045 95.6523C392.622 96.1471 392.091 96.5345 391.453 96.8145C390.815 97.0944 390.109 97.2344 389.334 97.2344ZM397.957 91.0039V97H395.887V86.6191H397.918V89.1973H397.469C397.801 88.2663 398.266 87.5729 398.865 87.1172C399.471 86.6549 400.203 86.4238 401.062 86.4238C401.772 86.4238 402.407 86.5801 402.967 86.8926C403.533 87.1986 403.979 87.6543 404.305 88.2598C404.63 88.8652 404.793 89.6172 404.793 90.5156V97H402.713V90.7793C402.713 89.9525 402.514 89.3275 402.117 88.9043C401.727 88.4811 401.17 88.2695 400.447 88.2695C399.985 88.2695 399.565 88.3672 399.188 88.5625C398.81 88.7513 398.51 89.0475 398.289 89.4512C398.068 89.8548 397.957 90.3724 397.957 91.0039ZM412.117 86.6191V88.3281H406.141V86.6191H412.117ZM407.938 83.8359H410.008V94.2461C410.008 94.6367 410.089 94.9102 410.252 95.0664C410.415 95.2227 410.701 95.3008 411.111 95.3008C411.261 95.3008 411.43 95.3008 411.619 95.3008C411.808 95.2943 411.971 95.291 412.107 95.291L412.146 96.9902C411.971 96.9967 411.762 97.0033 411.521 97.0098C411.281 97.0163 411.049 97.0195 410.828 97.0195C409.858 97.0195 409.132 96.8112 408.65 96.3945C408.175 95.9714 407.938 95.3398 407.938 94.5V83.8359ZM418.641 97V86.6191H420.652V88.8359H420.467C420.656 88.3021 420.913 87.8561 421.238 87.498C421.57 87.14 421.951 86.873 422.381 86.6973C422.811 86.515 423.263 86.4238 423.738 86.4238C424.533 86.4238 425.21 86.6549 425.77 87.1172C426.329 87.5729 426.678 88.1491 426.814 88.8457H426.492C426.635 88.377 426.87 87.9603 427.195 87.5957C427.527 87.2311 427.928 86.9447 428.396 86.7363C428.872 86.528 429.396 86.4238 429.969 86.4238C430.607 86.4238 431.186 86.5638 431.707 86.8438C432.228 87.1172 432.641 87.5306 432.947 88.084C433.253 88.6374 433.406 89.3275 433.406 90.1543V97H431.336V90.3301C431.336 89.5944 431.131 89.0638 430.721 88.7383C430.311 88.4062 429.826 88.2402 429.266 88.2402C428.81 88.2402 428.416 88.3379 428.084 88.5332C427.752 88.722 427.495 88.9857 427.312 89.3242C427.137 89.6628 427.049 90.0534 427.049 90.4961V97H425.008V90.1934C425.008 89.6009 424.816 89.1289 424.432 88.7773C424.054 88.4193 423.572 88.2402 422.986 88.2402C422.583 88.2402 422.208 88.3346 421.863 88.5234C421.518 88.7057 421.238 88.9824 421.023 89.3535C420.815 89.7181 420.711 90.1706 420.711 90.7109V97H418.641ZM438.924 97.166C438.24 97.166 437.628 97.0488 437.088 96.8145C436.548 96.5801 436.121 96.2318 435.809 95.7695C435.496 95.3008 435.34 94.7246 435.34 94.041C435.34 93.4421 435.451 92.9538 435.672 92.5762C435.9 92.1986 436.206 91.8991 436.59 91.6777C436.98 91.4564 437.42 91.2904 437.908 91.1797C438.396 91.0625 438.901 90.9746 439.422 90.916C440.073 90.8314 440.587 90.7663 440.965 90.7207C441.342 90.6686 441.613 90.5905 441.775 90.4863C441.945 90.3757 442.029 90.1966 442.029 89.9492V89.8613C442.029 89.5163 441.945 89.2135 441.775 88.9531C441.613 88.6927 441.375 88.4909 441.062 88.3477C440.757 88.1979 440.382 88.123 439.939 88.123C439.497 88.123 439.106 88.1947 438.768 88.3379C438.436 88.4811 438.169 88.6764 437.967 88.9238C437.771 89.1712 437.658 89.4512 437.625 89.7637L435.594 89.7051C435.652 89.0475 435.87 88.4746 436.248 87.9863C436.626 87.4915 437.13 87.1074 437.762 86.834C438.393 86.5605 439.126 86.4238 439.959 86.4238C440.571 86.4238 441.131 86.502 441.639 86.6582C442.146 86.8145 442.579 87.0423 442.938 87.3418C443.302 87.6413 443.582 88.0059 443.777 88.4355C443.979 88.8652 444.08 89.3568 444.08 89.9102V97H442.039V95.5352H442C441.857 95.8151 441.658 96.0788 441.404 96.3262C441.15 96.5736 440.822 96.7754 440.418 96.9316C440.014 97.0879 439.516 97.166 438.924 97.166ZM439.354 95.5059C439.959 95.5059 440.46 95.3952 440.857 95.1738C441.255 94.9525 441.548 94.6628 441.736 94.3047C441.932 93.9466 442.029 93.556 442.029 93.1328V91.9023C441.958 91.9609 441.837 92.0163 441.668 92.0684C441.505 92.1139 441.307 92.1595 441.072 92.2051C440.838 92.2507 440.587 92.2962 440.32 92.3418C440.06 92.3809 439.799 92.4199 439.539 92.459C439.161 92.5111 438.81 92.599 438.484 92.7227C438.159 92.8398 437.895 93.0059 437.693 93.2207C437.492 93.4355 437.391 93.7188 437.391 94.0703C437.391 94.3698 437.472 94.627 437.635 94.8418C437.798 95.0566 438.025 95.2227 438.318 95.3398C438.611 95.4505 438.956 95.5059 439.354 95.5059ZM448.543 91.0039V97H446.473V86.6191H448.504V89.1973H448.055C448.387 88.2663 448.852 87.5729 449.451 87.1172C450.057 86.6549 450.789 86.4238 451.648 86.4238C452.358 86.4238 452.993 86.5801 453.553 86.8926C454.119 87.1986 454.565 87.6543 454.891 88.2598C455.216 88.8652 455.379 89.6172 455.379 90.5156V97H453.299V90.7793C453.299 89.9525 453.1 89.3275 452.703 88.9043C452.312 88.4811 451.756 88.2695 451.033 88.2695C450.571 88.2695 450.151 88.3672 449.773 88.5625C449.396 88.7513 449.096 89.0475 448.875 89.4512C448.654 89.8548 448.543 90.3724 448.543 91.0039ZM460.896 97.166C460.213 97.166 459.601 97.0488 459.061 96.8145C458.52 96.5801 458.094 96.2318 457.781 95.7695C457.469 95.3008 457.312 94.7246 457.312 94.041C457.312 93.4421 457.423 92.9538 457.645 92.5762C457.872 92.1986 458.178 91.8991 458.562 91.6777C458.953 91.4564 459.393 91.2904 459.881 91.1797C460.369 91.0625 460.874 90.9746 461.395 90.916C462.046 90.8314 462.56 90.7663 462.938 90.7207C463.315 90.6686 463.585 90.5905 463.748 90.4863C463.917 90.3757 464.002 90.1966 464.002 89.9492V89.8613C464.002 89.5163 463.917 89.2135 463.748 88.9531C463.585 88.6927 463.348 88.4909 463.035 88.3477C462.729 88.1979 462.355 88.123 461.912 88.123C461.469 88.123 461.079 88.1947 460.74 88.3379C460.408 88.4811 460.141 88.6764 459.939 88.9238C459.744 89.1712 459.63 89.4512 459.598 89.7637L457.566 89.7051C457.625 89.0475 457.843 88.4746 458.221 87.9863C458.598 87.4915 459.103 87.1074 459.734 86.834C460.366 86.5605 461.098 86.4238 461.932 86.4238C462.544 86.4238 463.104 86.502 463.611 86.6582C464.119 86.8145 464.552 87.0423 464.91 87.3418C465.275 87.6413 465.555 88.0059 465.75 88.4355C465.952 88.8652 466.053 89.3568 466.053 89.9102V97H464.012V95.5352H463.973C463.829 95.8151 463.631 96.0788 463.377 96.3262C463.123 96.5736 462.794 96.7754 462.391 96.9316C461.987 97.0879 461.489 97.166 460.896 97.166ZM461.326 95.5059C461.932 95.5059 462.433 95.3952 462.83 95.1738C463.227 94.9525 463.52 94.6628 463.709 94.3047C463.904 93.9466 464.002 93.556 464.002 93.1328V91.9023C463.93 91.9609 463.81 92.0163 463.641 92.0684C463.478 92.1139 463.279 92.1595 463.045 92.2051C462.811 92.2507 462.56 92.2962 462.293 92.3418C462.033 92.3809 461.772 92.4199 461.512 92.459C461.134 92.5111 460.783 92.599 460.457 92.7227C460.132 92.8398 459.868 93.0059 459.666 93.2207C459.464 93.4355 459.363 93.7188 459.363 94.0703C459.363 94.3698 459.445 94.627 459.607 94.8418C459.77 95.0566 459.998 95.2227 460.291 95.3398C460.584 95.4505 460.929 95.5059 461.326 95.5059ZM472.957 101.229C472.111 101.229 471.368 101.105 470.73 100.857C470.092 100.61 469.575 100.255 469.178 99.793C468.787 99.3307 468.543 98.7741 468.445 98.123L470.467 98.0352C470.564 98.3542 470.724 98.6243 470.945 98.8457C471.173 99.0736 471.456 99.2461 471.795 99.3633C472.133 99.4805 472.518 99.5391 472.947 99.5391C473.787 99.5391 474.441 99.3177 474.91 98.875C475.385 98.4388 475.623 97.804 475.623 96.9707V95.3398H475.594C475.372 95.7174 475.105 96.0397 474.793 96.3066C474.48 96.5671 474.126 96.7656 473.729 96.9023C473.338 97.0326 472.902 97.0977 472.42 97.0977C471.535 97.0977 470.753 96.8763 470.076 96.4336C469.399 95.9844 468.875 95.3626 468.504 94.5684C468.133 93.7676 467.947 92.8398 467.947 91.7852C467.947 90.7174 468.133 89.7832 468.504 88.9824C468.882 88.1751 469.406 87.5469 470.076 87.0977C470.753 86.6484 471.535 86.4238 472.42 86.4238C472.895 86.4238 473.331 86.4922 473.729 86.6289C474.132 86.7656 474.493 86.9674 474.812 87.2344C475.132 87.5013 475.402 87.8268 475.623 88.2109H475.643V86.6191H477.684V96.9023C477.684 97.931 477.472 98.7611 477.049 99.3926C476.626 100.031 476.056 100.496 475.34 100.789C474.624 101.082 473.829 101.229 472.957 101.229ZM472.85 95.3301C473.436 95.3301 473.943 95.1836 474.373 94.8906C474.809 94.5977 475.145 94.1842 475.379 93.6504C475.613 93.1165 475.73 92.4883 475.73 91.7656C475.73 91.043 475.613 90.4147 475.379 89.8809C475.145 89.3405 474.812 88.9238 474.383 88.6309C473.953 88.3314 473.442 88.1816 472.85 88.1816C472.29 88.1816 471.798 88.3216 471.375 88.6016C470.958 88.8815 470.633 89.2884 470.398 89.8223C470.164 90.3561 470.047 91.0039 470.047 91.7656C470.047 92.5273 470.164 93.1751 470.398 93.709C470.633 94.2428 470.958 94.6465 471.375 94.9199C471.798 95.1934 472.29 95.3301 472.85 95.3301ZM484.51 97.2344C483.481 97.2344 482.596 97.0033 481.854 96.541C481.118 96.0788 480.551 95.4408 480.154 94.627C479.764 93.8132 479.568 92.8822 479.568 91.834C479.568 90.7728 479.77 89.8353 480.174 89.0215C480.584 88.2012 481.15 87.5599 481.873 87.0977C482.602 86.6289 483.442 86.3945 484.393 86.3945C485.109 86.3945 485.76 86.5215 486.346 86.7754C486.938 87.0293 487.446 87.3939 487.869 87.8691C488.299 88.3444 488.628 88.9141 488.855 89.5781C489.09 90.2422 489.207 90.9811 489.207 91.7949V92.3809H480.525V90.8184H488.123L487.205 91.2969C487.205 90.6523 487.091 90.0924 486.863 89.6172C486.635 89.1419 486.313 88.7741 485.896 88.5137C485.48 88.2533 484.982 88.123 484.402 88.123C483.836 88.123 483.341 88.2533 482.918 88.5137C482.501 88.7741 482.179 89.1419 481.951 89.6172C481.723 90.0859 481.609 90.6361 481.609 91.2676V92.1855C481.609 92.8431 481.723 93.4225 481.951 93.9238C482.179 94.4251 482.511 94.8158 482.947 95.0957C483.39 95.3691 483.921 95.5059 484.539 95.5059C484.982 95.5059 485.372 95.4375 485.711 95.3008C486.056 95.1641 486.342 94.9753 486.57 94.7344C486.805 94.487 486.971 94.1973 487.068 93.8652L489.061 93.9238C488.924 94.5749 488.644 95.151 488.221 95.6523C487.798 96.1471 487.267 96.5345 486.629 96.8145C485.991 97.0944 485.285 97.2344 484.51 97.2344ZM491.062 97V86.6191H493.074V88.8359H492.889C493.077 88.3021 493.335 87.8561 493.66 87.498C493.992 87.14 494.373 86.873 494.803 86.6973C495.232 86.515 495.685 86.4238 496.16 86.4238C496.954 86.4238 497.632 86.6549 498.191 87.1172C498.751 87.5729 499.1 88.1491 499.236 88.8457H498.914C499.057 88.377 499.292 87.9603 499.617 87.5957C499.949 87.2311 500.35 86.9447 500.818 86.7363C501.294 86.528 501.818 86.4238 502.391 86.4238C503.029 86.4238 503.608 86.5638 504.129 86.8438C504.65 87.1172 505.063 87.5306 505.369 88.084C505.675 88.6374 505.828 89.3275 505.828 90.1543V97H503.758V90.3301C503.758 89.5944 503.553 89.0638 503.143 88.7383C502.732 88.4062 502.247 88.2402 501.688 88.2402C501.232 88.2402 500.838 88.3379 500.506 88.5332C500.174 88.722 499.917 88.9857 499.734 89.3242C499.559 89.6628 499.471 90.0534 499.471 90.4961V97H497.43V90.1934C497.43 89.6009 497.238 89.1289 496.854 88.7773C496.476 88.4193 495.994 88.2402 495.408 88.2402C495.005 88.2402 494.63 88.3346 494.285 88.5234C493.94 88.7057 493.66 88.9824 493.445 89.3535C493.237 89.7181 493.133 90.1706 493.133 90.7109V97H491.062ZM512.654 97.2344C511.626 97.2344 510.74 97.0033 509.998 96.541C509.262 96.0788 508.696 95.4408 508.299 94.627C507.908 93.8132 507.713 92.8822 507.713 91.834C507.713 90.7728 507.915 89.8353 508.318 89.0215C508.729 88.2012 509.295 87.5599 510.018 87.0977C510.747 86.6289 511.587 86.3945 512.537 86.3945C513.253 86.3945 513.904 86.5215 514.49 86.7754C515.083 87.0293 515.59 87.3939 516.014 87.8691C516.443 88.3444 516.772 88.9141 517 89.5781C517.234 90.2422 517.352 90.9811 517.352 91.7949V92.3809H508.67V90.8184H516.268L515.35 91.2969C515.35 90.6523 515.236 90.0924 515.008 89.6172C514.78 89.1419 514.458 88.7741 514.041 88.5137C513.624 88.2533 513.126 88.123 512.547 88.123C511.98 88.123 511.486 88.2533 511.062 88.5137C510.646 88.7741 510.324 89.1419 510.096 89.6172C509.868 90.0859 509.754 90.6361 509.754 91.2676V92.1855C509.754 92.8431 509.868 93.4225 510.096 93.9238C510.324 94.4251 510.656 94.8158 511.092 95.0957C511.535 95.3691 512.065 95.5059 512.684 95.5059C513.126 95.5059 513.517 95.4375 513.855 95.3008C514.201 95.1641 514.487 94.9753 514.715 94.7344C514.949 94.487 515.115 94.1973 515.213 93.8652L517.205 93.9238C517.068 94.5749 516.788 95.151 516.365 95.6523C515.942 96.1471 515.411 96.5345 514.773 96.8145C514.135 97.0944 513.429 97.2344 512.654 97.2344ZM521.277 91.0039V97H519.207V86.6191H521.238V89.1973H520.789C521.121 88.2663 521.587 87.5729 522.186 87.1172C522.791 86.6549 523.523 86.4238 524.383 86.4238C525.092 86.4238 525.727 86.5801 526.287 86.8926C526.854 87.1986 527.299 87.6543 527.625 88.2598C527.951 88.8652 528.113 89.6172 528.113 90.5156V97H526.033V90.7793C526.033 89.9525 525.835 89.3275 525.438 88.9043C525.047 88.4811 524.49 88.2695 523.768 88.2695C523.305 88.2695 522.885 88.3672 522.508 88.5625C522.13 88.7513 521.831 89.0475 521.609 89.4512C521.388 89.8548 521.277 90.3724 521.277 91.0039ZM535.438 86.6191V88.3281H529.461V86.6191H535.438ZM531.258 83.8359H533.328V94.2461C533.328 94.6367 533.41 94.9102 533.572 95.0664C533.735 95.2227 534.021 95.3008 534.432 95.3008C534.581 95.3008 534.751 95.3008 534.939 95.3008C535.128 95.2943 535.291 95.291 535.428 95.291L535.467 96.9902C535.291 96.9967 535.083 97.0033 534.842 97.0098C534.601 97.0163 534.37 97.0195 534.148 97.0195C533.178 97.0195 532.452 96.8112 531.971 96.3945C531.495 95.9714 531.258 95.3398 531.258 94.5V83.8359Z" fill="black"/>
<rect x="99" y="128" width="175" height="52" rx="26" fill="white"/>
<g clip-path="url(#clip4_246_1101)">
<path d="M127 144L127.117 144.007C127.34 144.033 127.548 144.134 127.707 144.293C127.866 144.452 127.967 144.66 127.993 144.883L128 145V149L128.005 149.15C128.041 149.626 128.246 150.074 128.583 150.412C128.92 150.75 129.367 150.957 129.843 150.994L130 151H134L134.117 151.007C134.34 151.033 134.548 151.134 134.707 151.293C134.866 151.452 134.967 151.66 134.993 151.883L135 152V161C135 161.765 134.708 162.502 134.183 163.058C133.658 163.615 132.94 163.95 132.176 163.995L132 164H122C121.235 164 120.498 163.708 119.942 163.183C119.385 162.658 119.05 161.94 119.005 161.176L119 161V147C119 146.235 119.292 145.498 119.817 144.942C120.342 144.385 121.06 144.05 121.824 144.005L122 144H127ZM127 152C126.735 152 126.48 152.105 126.293 152.293C126.105 152.48 126 152.735 126 153V156.585L125.207 155.793C125.035 155.621 124.806 155.517 124.563 155.502C124.32 155.487 124.079 155.561 123.887 155.71L123.793 155.793C123.606 155.981 123.5 156.235 123.5 156.5C123.5 156.765 123.606 157.019 123.793 157.207L126.293 159.707L126.337 159.749L126.405 159.804L126.515 159.875L126.629 159.929L126.734 159.964L126.884 159.994L127 160L127.117 159.993L127.234 159.973L127.342 159.94L127.423 159.906L127.521 159.854L127.613 159.79L127.707 159.707L130.207 157.207C130.394 157.019 130.5 156.765 130.5 156.5C130.5 156.235 130.394 155.981 130.207 155.793L130.113 155.71C129.921 155.561 129.68 155.487 129.437 155.502C129.194 155.517 128.965 155.621 128.793 155.793L128 156.584V153C128 152.755 127.91 152.519 127.747 152.336C127.585 152.153 127.36 152.036 127.117 152.007L127 152ZM129.999 144.999L134 149H130L129.999 144.999Z" fill="#8968FF"/>
</g>
<path d="M152.357 161V146.449H161.781V148.354H154.535V152.748H161.215V154.633H154.535V161H152.357ZM163.52 161V150.619H165.59V161H163.52ZM164.555 148.861C164.184 148.861 163.871 148.738 163.617 148.49C163.37 148.243 163.246 147.943 163.246 147.592C163.246 147.234 163.37 146.934 163.617 146.693C163.871 146.446 164.18 146.322 164.545 146.322C164.916 146.322 165.229 146.446 165.482 146.693C165.736 146.934 165.863 147.234 165.863 147.592C165.863 147.943 165.736 148.243 165.482 148.49C165.229 148.738 164.919 148.861 164.555 148.861ZM170.043 146.449V161H167.973V146.449H170.043ZM176.869 161.234C175.84 161.234 174.955 161.003 174.213 160.541C173.477 160.079 172.911 159.441 172.514 158.627C172.123 157.813 171.928 156.882 171.928 155.834C171.928 154.773 172.13 153.835 172.533 153.021C172.943 152.201 173.51 151.56 174.232 151.098C174.962 150.629 175.801 150.395 176.752 150.395C177.468 150.395 178.119 150.521 178.705 150.775C179.298 151.029 179.805 151.394 180.229 151.869C180.658 152.344 180.987 152.914 181.215 153.578C181.449 154.242 181.566 154.981 181.566 155.795V156.381H172.885V154.818H180.482L179.564 155.297C179.564 154.652 179.451 154.092 179.223 153.617C178.995 153.142 178.673 152.774 178.256 152.514C177.839 152.253 177.341 152.123 176.762 152.123C176.195 152.123 175.701 152.253 175.277 152.514C174.861 152.774 174.538 153.142 174.311 153.617C174.083 154.086 173.969 154.636 173.969 155.268V156.186C173.969 156.843 174.083 157.423 174.311 157.924C174.538 158.425 174.87 158.816 175.307 159.096C175.749 159.369 176.28 159.506 176.898 159.506C177.341 159.506 177.732 159.438 178.07 159.301C178.415 159.164 178.702 158.975 178.93 158.734C179.164 158.487 179.33 158.197 179.428 157.865L181.42 157.924C181.283 158.575 181.003 159.151 180.58 159.652C180.157 160.147 179.626 160.535 178.988 160.814C178.35 161.094 177.644 161.234 176.869 161.234ZM192.084 161.234C191.296 161.234 190.587 161.111 189.955 160.863C189.324 160.616 188.812 160.245 188.422 159.75C188.038 159.255 187.816 158.64 187.758 157.904L189.799 157.855C189.864 158.415 190.089 158.845 190.473 159.145C190.857 159.444 191.381 159.594 192.045 159.594C192.702 159.594 193.22 159.46 193.598 159.193C193.982 158.92 194.174 158.578 194.174 158.168C194.174 157.816 194.04 157.533 193.773 157.318C193.507 157.104 193.145 156.947 192.689 156.85L190.961 156.469C189.991 156.254 189.255 155.899 188.754 155.404C188.253 154.91 188.002 154.278 188.002 153.51C188.002 152.898 188.168 152.357 188.5 151.889C188.832 151.42 189.298 151.055 189.896 150.795C190.495 150.535 191.192 150.404 191.986 150.404C192.761 150.404 193.445 150.541 194.037 150.814C194.636 151.081 195.108 151.462 195.453 151.957C195.805 152.445 195.997 153.028 196.029 153.705L194.066 153.754C194.047 153.266 193.852 152.859 193.48 152.533C193.116 152.208 192.624 152.045 192.006 152.045C191.42 152.045 190.951 152.182 190.6 152.455C190.248 152.729 190.072 153.064 190.072 153.461C190.072 153.812 190.206 154.096 190.473 154.311C190.74 154.525 191.111 154.688 191.586 154.799L193.344 155.189C194.346 155.411 195.085 155.756 195.561 156.225C196.036 156.687 196.273 157.296 196.273 158.051C196.273 158.702 196.091 159.268 195.727 159.75C195.368 160.225 194.874 160.593 194.242 160.854C193.611 161.107 192.891 161.234 192.084 161.234ZM200.219 155.004V161H198.148V146.449H200.219V153.197H199.73C200.062 152.266 200.528 151.573 201.127 151.117C201.732 150.655 202.465 150.424 203.324 150.424C204.034 150.424 204.669 150.58 205.229 150.893C205.795 151.199 206.241 151.654 206.566 152.26C206.892 152.865 207.055 153.617 207.055 154.516V161H204.975V154.779C204.975 153.952 204.776 153.327 204.379 152.904C203.988 152.481 203.432 152.27 202.709 152.27C202.247 152.27 201.827 152.367 201.449 152.562C201.072 152.751 200.772 153.048 200.551 153.451C200.329 153.855 200.219 154.372 200.219 155.004ZM212.572 161.166C211.889 161.166 211.277 161.049 210.736 160.814C210.196 160.58 209.77 160.232 209.457 159.77C209.145 159.301 208.988 158.725 208.988 158.041C208.988 157.442 209.099 156.954 209.32 156.576C209.548 156.199 209.854 155.899 210.238 155.678C210.629 155.456 211.068 155.29 211.557 155.18C212.045 155.062 212.549 154.975 213.07 154.916C213.721 154.831 214.236 154.766 214.613 154.721C214.991 154.669 215.261 154.59 215.424 154.486C215.593 154.376 215.678 154.197 215.678 153.949V153.861C215.678 153.516 215.593 153.214 215.424 152.953C215.261 152.693 215.023 152.491 214.711 152.348C214.405 152.198 214.031 152.123 213.588 152.123C213.145 152.123 212.755 152.195 212.416 152.338C212.084 152.481 211.817 152.676 211.615 152.924C211.42 153.171 211.306 153.451 211.273 153.764L209.242 153.705C209.301 153.048 209.519 152.475 209.896 151.986C210.274 151.492 210.779 151.107 211.41 150.834C212.042 150.561 212.774 150.424 213.607 150.424C214.219 150.424 214.779 150.502 215.287 150.658C215.795 150.814 216.228 151.042 216.586 151.342C216.951 151.641 217.23 152.006 217.426 152.436C217.628 152.865 217.729 153.357 217.729 153.91V161H215.688V159.535H215.648C215.505 159.815 215.307 160.079 215.053 160.326C214.799 160.574 214.47 160.775 214.066 160.932C213.663 161.088 213.165 161.166 212.572 161.166ZM213.002 159.506C213.607 159.506 214.109 159.395 214.506 159.174C214.903 158.952 215.196 158.663 215.385 158.305C215.58 157.947 215.678 157.556 215.678 157.133V155.902C215.606 155.961 215.486 156.016 215.316 156.068C215.154 156.114 214.955 156.16 214.721 156.205C214.486 156.251 214.236 156.296 213.969 156.342C213.708 156.381 213.448 156.42 213.188 156.459C212.81 156.511 212.458 156.599 212.133 156.723C211.807 156.84 211.544 157.006 211.342 157.221C211.14 157.436 211.039 157.719 211.039 158.07C211.039 158.37 211.12 158.627 211.283 158.842C211.446 159.057 211.674 159.223 211.967 159.34C212.26 159.451 212.605 159.506 213.002 159.506ZM220.121 161V150.619H222.113V152.299H222.152C222.348 151.732 222.654 151.29 223.07 150.971C223.487 150.652 224.024 150.492 224.682 150.492C224.831 150.492 224.975 150.499 225.111 150.512C225.248 150.518 225.359 150.528 225.443 150.541V152.475C225.365 152.462 225.222 152.442 225.014 152.416C224.812 152.39 224.59 152.377 224.35 152.377C223.959 152.377 223.598 152.468 223.266 152.65C222.94 152.833 222.68 153.106 222.484 153.471C222.289 153.835 222.191 154.294 222.191 154.848V161H220.121ZM227.016 161V150.619H229.086V161H227.016ZM228.051 148.861C227.68 148.861 227.367 148.738 227.113 148.49C226.866 148.243 226.742 147.943 226.742 147.592C226.742 147.234 226.866 146.934 227.113 146.693C227.367 146.446 227.676 146.322 228.041 146.322C228.412 146.322 228.725 146.446 228.979 146.693C229.232 146.934 229.359 147.234 229.359 147.592C229.359 147.943 229.232 148.243 228.979 148.49C228.725 148.738 228.415 148.861 228.051 148.861ZM233.539 155.004V161H231.469V150.619H233.5V153.197H233.051C233.383 152.266 233.848 151.573 234.447 151.117C235.053 150.655 235.785 150.424 236.645 150.424C237.354 150.424 237.989 150.58 238.549 150.893C239.115 151.199 239.561 151.654 239.887 152.26C240.212 152.865 240.375 153.617 240.375 154.516V161H238.295V154.779C238.295 153.952 238.096 153.327 237.699 152.904C237.309 152.481 236.752 152.27 236.029 152.27C235.567 152.27 235.147 152.367 234.77 152.562C234.392 152.751 234.092 153.048 233.871 153.451C233.65 153.855 233.539 154.372 233.539 155.004ZM247.27 165.229C246.423 165.229 245.681 165.105 245.043 164.857C244.405 164.61 243.887 164.255 243.49 163.793C243.1 163.331 242.855 162.774 242.758 162.123L244.779 162.035C244.877 162.354 245.036 162.624 245.258 162.846C245.486 163.074 245.769 163.246 246.107 163.363C246.446 163.48 246.83 163.539 247.26 163.539C248.1 163.539 248.754 163.318 249.223 162.875C249.698 162.439 249.936 161.804 249.936 160.971V159.34H249.906C249.685 159.717 249.418 160.04 249.105 160.307C248.793 160.567 248.438 160.766 248.041 160.902C247.65 161.033 247.214 161.098 246.732 161.098C245.847 161.098 245.066 160.876 244.389 160.434C243.712 159.984 243.188 159.363 242.816 158.568C242.445 157.768 242.26 156.84 242.26 155.785C242.26 154.717 242.445 153.783 242.816 152.982C243.194 152.175 243.718 151.547 244.389 151.098C245.066 150.648 245.847 150.424 246.732 150.424C247.208 150.424 247.644 150.492 248.041 150.629C248.445 150.766 248.806 150.967 249.125 151.234C249.444 151.501 249.714 151.827 249.936 152.211H249.955V150.619H251.996V160.902C251.996 161.931 251.785 162.761 251.361 163.393C250.938 164.031 250.368 164.496 249.652 164.789C248.936 165.082 248.142 165.229 247.27 165.229ZM247.162 159.33C247.748 159.33 248.256 159.184 248.686 158.891C249.122 158.598 249.457 158.184 249.691 157.65C249.926 157.117 250.043 156.488 250.043 155.766C250.043 155.043 249.926 154.415 249.691 153.881C249.457 153.34 249.125 152.924 248.695 152.631C248.266 152.331 247.755 152.182 247.162 152.182C246.602 152.182 246.111 152.322 245.688 152.602C245.271 152.882 244.945 153.288 244.711 153.822C244.477 154.356 244.359 155.004 244.359 155.766C244.359 156.527 244.477 157.175 244.711 157.709C244.945 158.243 245.271 158.646 245.688 158.92C246.111 159.193 246.602 159.33 247.162 159.33Z" fill="black"/>
<rect x="286" y="128" width="202" height="52" rx="26" fill="white"/>
<g clip-path="url(#clip5_246_1101)">
<path d="M322.117 149.625C321.923 149.603 321.727 149.637 321.553 149.725L317 152V156L321.553 158.275C321.705 158.351 321.874 158.387 322.044 158.379C322.215 158.372 322.38 158.321 322.525 158.232C322.67 158.142 322.789 158.018 322.873 157.869C322.956 157.721 323 157.553 323 157.383V150.617C323 150.372 322.91 150.136 322.747 149.953C322.584 149.77 322.36 149.654 322.117 149.625Z" fill="#FF6F00"/>
<path d="M307 147C305.355 147 304 148.355 304 150V158C304 159.645 305.355 161 307 161H315C316.645 161 318 159.645 318 158V150C318 148.355 316.645 147 315 147H307Z" fill="#FF6F00"/>
</g>
<path d="M338.518 148.354V146.449H349.934V148.354H345.324V161H343.146V148.354H338.518ZM356.096 161.234C355.067 161.234 354.182 161.003 353.439 160.541C352.704 160.079 352.137 159.441 351.74 158.627C351.35 157.813 351.154 156.882 351.154 155.834C351.154 154.773 351.356 153.835 351.76 153.021C352.17 152.201 352.736 151.56 353.459 151.098C354.188 150.629 355.028 150.395 355.979 150.395C356.695 150.395 357.346 150.521 357.932 150.775C358.524 151.029 359.032 151.394 359.455 151.869C359.885 152.344 360.214 152.914 360.441 153.578C360.676 154.242 360.793 154.981 360.793 155.795V156.381H352.111V154.818H359.709L358.791 155.297C358.791 154.652 358.677 154.092 358.449 153.617C358.221 153.142 357.899 152.774 357.482 152.514C357.066 152.253 356.568 152.123 355.988 152.123C355.422 152.123 354.927 152.253 354.504 152.514C354.087 152.774 353.765 153.142 353.537 153.617C353.309 154.086 353.195 154.636 353.195 155.268V156.186C353.195 156.843 353.309 157.423 353.537 157.924C353.765 158.425 354.097 158.816 354.533 159.096C354.976 159.369 355.507 159.506 356.125 159.506C356.568 159.506 356.958 159.438 357.297 159.301C357.642 159.164 357.928 158.975 358.156 158.734C358.391 158.487 358.557 158.197 358.654 157.865L360.646 157.924C360.51 158.575 360.23 159.151 359.807 159.652C359.383 160.147 358.853 160.535 358.215 160.814C357.577 161.094 356.87 161.234 356.096 161.234ZM364.719 146.449V161H362.648V146.449H364.719ZM371.545 161.234C370.516 161.234 369.631 161.003 368.889 160.541C368.153 160.079 367.587 159.441 367.189 158.627C366.799 157.813 366.604 156.882 366.604 155.834C366.604 154.773 366.805 153.835 367.209 153.021C367.619 152.201 368.186 151.56 368.908 151.098C369.637 150.629 370.477 150.395 371.428 150.395C372.144 150.395 372.795 150.521 373.381 150.775C373.973 151.029 374.481 151.394 374.904 151.869C375.334 152.344 375.663 152.914 375.891 153.578C376.125 154.242 376.242 154.981 376.242 155.795V156.381H367.561V154.818H375.158L374.24 155.297C374.24 154.652 374.126 154.092 373.898 153.617C373.671 153.142 373.348 152.774 372.932 152.514C372.515 152.253 372.017 152.123 371.438 152.123C370.871 152.123 370.376 152.253 369.953 152.514C369.536 152.774 369.214 153.142 368.986 153.617C368.758 154.086 368.645 154.636 368.645 155.268V156.186C368.645 156.843 368.758 157.423 368.986 157.924C369.214 158.425 369.546 158.816 369.982 159.096C370.425 159.369 370.956 159.506 371.574 159.506C372.017 159.506 372.408 159.438 372.746 159.301C373.091 159.164 373.378 158.975 373.605 158.734C373.84 158.487 374.006 158.197 374.104 157.865L376.096 157.924C375.959 158.575 375.679 159.151 375.256 159.652C374.833 160.147 374.302 160.535 373.664 160.814C373.026 161.094 372.32 161.234 371.545 161.234ZM384.504 154.193V156.01H378.059V154.193H384.504ZM386.848 161V150.619H388.859V152.836H388.674C388.863 152.302 389.12 151.856 389.445 151.498C389.777 151.14 390.158 150.873 390.588 150.697C391.018 150.515 391.47 150.424 391.945 150.424C392.74 150.424 393.417 150.655 393.977 151.117C394.536 151.573 394.885 152.149 395.021 152.846H394.699C394.842 152.377 395.077 151.96 395.402 151.596C395.734 151.231 396.135 150.945 396.604 150.736C397.079 150.528 397.603 150.424 398.176 150.424C398.814 150.424 399.393 150.564 399.914 150.844C400.435 151.117 400.848 151.531 401.154 152.084C401.46 152.637 401.613 153.327 401.613 154.154V161H399.543V154.33C399.543 153.594 399.338 153.064 398.928 152.738C398.518 152.406 398.033 152.24 397.473 152.24C397.017 152.24 396.623 152.338 396.291 152.533C395.959 152.722 395.702 152.986 395.52 153.324C395.344 153.663 395.256 154.053 395.256 154.496V161H393.215V154.193C393.215 153.601 393.023 153.129 392.639 152.777C392.261 152.419 391.779 152.24 391.193 152.24C390.79 152.24 390.415 152.335 390.07 152.523C389.725 152.706 389.445 152.982 389.23 153.354C389.022 153.718 388.918 154.171 388.918 154.711V161H386.848ZM408.439 161.234C407.411 161.234 406.525 161.003 405.783 160.541C405.048 160.079 404.481 159.441 404.084 158.627C403.693 157.813 403.498 156.882 403.498 155.834C403.498 154.773 403.7 153.835 404.104 153.021C404.514 152.201 405.08 151.56 405.803 151.098C406.532 150.629 407.372 150.395 408.322 150.395C409.038 150.395 409.689 150.521 410.275 150.775C410.868 151.029 411.376 151.394 411.799 151.869C412.229 152.344 412.557 152.914 412.785 153.578C413.02 154.242 413.137 154.981 413.137 155.795V156.381H404.455V154.818H412.053L411.135 155.297C411.135 154.652 411.021 154.092 410.793 153.617C410.565 153.142 410.243 152.774 409.826 152.514C409.41 152.253 408.911 152.123 408.332 152.123C407.766 152.123 407.271 152.253 406.848 152.514C406.431 152.774 406.109 153.142 405.881 153.617C405.653 154.086 405.539 154.636 405.539 155.268V156.186C405.539 156.843 405.653 157.423 405.881 157.924C406.109 158.425 406.441 158.816 406.877 159.096C407.32 159.369 407.85 159.506 408.469 159.506C408.911 159.506 409.302 159.438 409.641 159.301C409.986 159.164 410.272 158.975 410.5 158.734C410.734 158.487 410.9 158.197 410.998 157.865L412.99 157.924C412.854 158.575 412.574 159.151 412.15 159.652C411.727 160.147 411.197 160.535 410.559 160.814C409.921 161.094 409.214 161.234 408.439 161.234ZM418.967 161.205C418.075 161.205 417.29 160.98 416.613 160.531C415.943 160.076 415.422 159.444 415.051 158.637C414.68 157.829 414.494 156.889 414.494 155.814C414.494 154.74 414.68 153.799 415.051 152.992C415.428 152.178 415.952 151.547 416.623 151.098C417.3 150.648 418.081 150.424 418.967 150.424C419.442 150.424 419.878 150.492 420.275 150.629C420.673 150.766 421.027 150.961 421.34 151.215C421.652 151.469 421.913 151.778 422.121 152.143H422.15V146.449H424.23V161H422.189V159.418H422.16C421.939 159.796 421.669 160.118 421.35 160.385C421.031 160.652 420.673 160.857 420.275 161C419.878 161.137 419.442 161.205 418.967 161.205ZM419.396 159.418C419.982 159.418 420.49 159.268 420.92 158.969C421.356 158.669 421.691 158.249 421.926 157.709C422.16 157.169 422.277 156.534 422.277 155.805C422.277 155.076 422.16 154.441 421.926 153.9C421.691 153.36 421.356 152.943 420.92 152.65C420.49 152.351 419.982 152.201 419.396 152.201C418.837 152.201 418.345 152.341 417.922 152.621C417.499 152.901 417.17 153.311 416.936 153.852C416.708 154.385 416.594 155.036 416.594 155.805C416.594 156.573 416.711 157.227 416.945 157.768C417.18 158.308 417.505 158.718 417.922 158.998C418.345 159.278 418.837 159.418 419.396 159.418ZM426.613 161V150.619H428.684V161H426.613ZM427.648 148.861C427.277 148.861 426.965 148.738 426.711 148.49C426.464 148.243 426.34 147.943 426.34 147.592C426.34 147.234 426.464 146.934 426.711 146.693C426.965 146.446 427.274 146.322 427.639 146.322C428.01 146.322 428.322 146.446 428.576 146.693C428.83 146.934 428.957 147.234 428.957 147.592C428.957 147.943 428.83 148.243 428.576 148.49C428.322 148.738 428.013 148.861 427.648 148.861ZM435.5 161.234C434.517 161.234 433.654 161.007 432.912 160.551C432.17 160.089 431.594 159.454 431.184 158.646C430.773 157.833 430.568 156.895 430.568 155.834C430.568 154.766 430.773 153.826 431.184 153.012C431.594 152.191 432.17 151.55 432.912 151.088C433.654 150.626 434.517 150.395 435.5 150.395C436.112 150.395 436.675 150.486 437.189 150.668C437.71 150.85 438.169 151.107 438.566 151.439C438.964 151.765 439.286 152.156 439.533 152.611C439.787 153.061 439.95 153.555 440.021 154.096L437.971 154.154C437.919 153.861 437.824 153.594 437.688 153.354C437.557 153.113 437.388 152.908 437.18 152.738C436.971 152.562 436.727 152.426 436.447 152.328C436.174 152.23 435.861 152.182 435.51 152.182C434.911 152.182 434.396 152.335 433.967 152.641C433.544 152.94 433.218 153.363 432.99 153.91C432.769 154.457 432.658 155.098 432.658 155.834C432.658 156.557 432.769 157.191 432.99 157.738C433.218 158.279 433.544 158.699 433.967 158.998C434.396 159.298 434.911 159.447 435.51 159.447C435.861 159.447 436.174 159.402 436.447 159.311C436.721 159.219 436.955 159.086 437.15 158.91C437.352 158.734 437.518 158.526 437.648 158.285C437.785 158.038 437.886 157.764 437.951 157.465L440.021 157.523C439.956 158.057 439.8 158.549 439.553 158.998C439.305 159.447 438.98 159.841 438.576 160.18C438.179 160.512 437.72 160.772 437.199 160.961C436.678 161.143 436.112 161.234 435.5 161.234ZM441.848 161V150.619H443.918V161H441.848ZM442.883 148.861C442.512 148.861 442.199 148.738 441.945 148.49C441.698 148.243 441.574 147.943 441.574 147.592C441.574 147.234 441.698 146.934 441.945 146.693C442.199 146.446 442.508 146.322 442.873 146.322C443.244 146.322 443.557 146.446 443.811 146.693C444.064 146.934 444.191 147.234 444.191 147.592C444.191 147.943 444.064 148.243 443.811 148.49C443.557 148.738 443.247 148.861 442.883 148.861ZM448.371 155.004V161H446.301V150.619H448.332V153.197H447.883C448.215 152.266 448.68 151.573 449.279 151.117C449.885 150.655 450.617 150.424 451.477 150.424C452.186 150.424 452.821 150.58 453.381 150.893C453.947 151.199 454.393 151.654 454.719 152.26C455.044 152.865 455.207 153.617 455.207 154.516V161H453.127V154.779C453.127 153.952 452.928 153.327 452.531 152.904C452.141 152.481 451.584 152.27 450.861 152.27C450.399 152.27 449.979 152.367 449.602 152.562C449.224 152.751 448.924 153.048 448.703 153.451C448.482 153.855 448.371 154.372 448.371 155.004ZM462.033 161.234C461.005 161.234 460.119 161.003 459.377 160.541C458.641 160.079 458.075 159.441 457.678 158.627C457.287 157.813 457.092 156.882 457.092 155.834C457.092 154.773 457.294 153.835 457.697 153.021C458.107 152.201 458.674 151.56 459.396 151.098C460.126 150.629 460.965 150.395 461.916 150.395C462.632 150.395 463.283 150.521 463.869 150.775C464.462 151.029 464.969 151.394 465.393 151.869C465.822 152.344 466.151 152.914 466.379 153.578C466.613 154.242 466.73 154.981 466.73 155.795V156.381H458.049V154.818H465.646L464.729 155.297C464.729 154.652 464.615 154.092 464.387 153.617C464.159 153.142 463.837 152.774 463.42 152.514C463.003 152.253 462.505 152.123 461.926 152.123C461.359 152.123 460.865 152.253 460.441 152.514C460.025 152.774 459.702 153.142 459.475 153.617C459.247 154.086 459.133 154.636 459.133 155.268V156.186C459.133 156.843 459.247 157.423 459.475 157.924C459.702 158.425 460.035 158.816 460.471 159.096C460.913 159.369 461.444 159.506 462.062 159.506C462.505 159.506 462.896 159.438 463.234 159.301C463.579 159.164 463.866 158.975 464.094 158.734C464.328 158.487 464.494 158.197 464.592 157.865L466.584 157.924C466.447 158.575 466.167 159.151 465.744 159.652C465.321 160.147 464.79 160.535 464.152 160.814C463.514 161.094 462.808 161.234 462.033 161.234Z" fill="black"/>
<defs>
<clipPath id="clip0_246_1101">
<rect width="24" height="24" fill="white" transform="translate(108 14)"/>
</clipPath>
<clipPath id="clip1_246_1101">
<rect width="24" height="24" fill="white" transform="translate(338 14)"/>
</clipPath>
<clipPath id="clip2_246_1101">
<rect width="24" height="24" fill="white" transform="translate(46.5 78)"/>
</clipPath>
<clipPath id="clip3_246_1101">
<rect width="24" height="24" fill="white" transform="translate(313.5 78)"/>
</clipPath>
<clipPath id="clip4_246_1101">
<rect width="24" height="24" fill="white" transform="translate(115 142)"/>
</clipPath>
<clipPath id="clip5_246_1101">
<rect width="24" height="24" fill="white" transform="translate(302 142)"/>
</clipPath>
</defs>
</svg>
