<svg width="168" height="18" viewBox="0 0 168 18" fill="none" xmlns="http://www.w3.org/2000/svg">
<path d="M38.6309 10.6377L40.9922 4.38965H43.4639L37.8389 17.5771H35.4775L37.3896 13.2861L33.7441 4.38965H36.2705L38.6309 10.6377ZM90.2754 4.20508C91.1115 4.20508 91.8374 4.40774 92.4521 4.81348C93.0792 5.20695 93.5649 5.76672 93.9092 6.49219C94.2534 7.2176 94.4258 8.07207 94.4258 9.05566C94.4258 10.0516 94.2472 10.9185 93.8906 11.6562C93.534 12.394 93.0359 12.9663 92.3965 13.3721C91.7572 13.7777 91.0008 13.9805 90.1279 13.9805C89.2306 13.9804 88.4991 13.7714 87.9336 13.3535C87.5489 13.0543 87.2676 12.6764 87.085 12.2227V17.5771H84.7607V4.38965H87.0293V5.94824C87.242 5.49044 87.5734 5.11179 88.0254 4.81348C88.6401 4.40776 89.3902 4.20513 90.2754 4.20508ZM14.3975 10.3281C14.3975 10.9059 14.5386 11.3426 14.8213 11.6377C15.1164 11.9328 15.5289 12.0811 16.0576 12.0811C16.537 12.081 16.9551 11.9702 17.3115 11.749C17.6804 11.5277 17.9697 11.2196 18.1787 10.8262C18.3999 10.4206 18.5107 9.96577 18.5107 9.46191V4.38965H20.8525V13.7959H18.584V12.04C18.2849 12.5779 17.8807 13.0229 17.3672 13.3721C16.7647 13.7778 16.0513 13.9804 15.2275 13.9805C14.5758 13.9805 14.0098 13.8447 13.5303 13.5742C13.0632 13.2914 12.7005 12.9101 12.4424 12.4307C12.1965 11.9512 12.0732 11.41 12.0732 10.8076V4.38965H14.3975V10.3281ZM25.8232 5.96484C26.0241 5.49949 26.344 5.11542 26.7832 4.81348C27.3856 4.40788 28.1295 4.20508 29.0146 4.20508C29.8505 4.2051 30.5758 4.40791 31.1904 4.81348C31.8175 5.20695 32.3041 5.76672 32.6484 6.49219C32.9926 7.21756 33.164 8.07216 33.1641 9.05566C33.1641 10.0515 32.9864 10.9185 32.6299 11.6562C32.2733 12.394 31.7751 12.9663 31.1357 13.3721C30.4964 13.7778 29.7401 13.9804 28.8672 13.9805C27.9696 13.9805 27.2312 13.7716 26.6533 13.3535C26.246 13.0436 25.9527 12.6496 25.7686 12.1738V13.7959H23.5V0.516602H25.8232V5.96484ZM100.714 4.20508C101.648 4.20509 102.46 4.40149 103.148 4.79492C103.837 5.17605 104.372 5.71723 104.753 6.41797C105.134 7.11878 105.325 7.9367 105.325 8.87109C105.325 9.04311 105.319 9.20312 105.307 9.35059C105.294 9.49814 105.276 9.64639 105.251 9.79395H98.1533C98.2361 10.4762 98.4497 11.0238 98.7959 11.4355C99.2631 11.964 99.9213 12.2285 100.77 12.2285C101.261 12.2285 101.692 12.1356 102.061 11.9512C102.429 11.7668 102.7 11.4844 102.872 11.1035H105.066C104.759 11.9886 104.237 12.6897 103.499 13.2061C102.774 13.7224 101.857 13.9804 100.751 13.9805C99.7551 13.9805 98.8818 13.7715 98.1318 13.3535C97.3941 12.9355 96.8155 12.3569 96.3975 11.6191C95.9919 10.8815 95.7891 10.0331 95.7891 9.07422C95.7891 8.11536 95.9919 7.2732 96.3975 6.54785C96.8155 5.81009 97.3941 5.2378 98.1318 4.83203C98.8696 4.41405 99.7303 4.20508 100.714 4.20508ZM111.45 4.20508C112.225 4.20508 112.926 4.35248 113.553 4.64746C114.18 4.93027 114.697 5.33651 115.103 5.86523C115.508 6.38162 115.766 6.98438 115.877 7.67285H113.646C113.51 7.16886 113.252 6.77498 112.871 6.49219C112.49 6.20938 112.028 6.06738 111.487 6.06738C110.983 6.06739 110.547 6.19062 110.178 6.43652C109.821 6.68244 109.544 7.03333 109.348 7.48828C109.151 7.94317 109.053 8.47184 109.053 9.07422C109.053 9.68893 109.151 10.2238 109.348 10.6787C109.544 11.1337 109.827 11.4908 110.196 11.749C110.565 11.9948 110.996 12.1172 111.487 12.1172C112.028 12.1172 112.49 11.9762 112.871 11.6934C113.252 11.4106 113.51 11.0167 113.646 10.5127H115.877C115.766 11.2013 115.502 11.8101 115.084 12.3389C114.678 12.8553 114.161 13.2606 113.534 13.5557C112.919 13.8384 112.225 13.9805 111.45 13.9805C110.504 13.9804 109.668 13.7714 108.942 13.3535C108.229 12.9355 107.663 12.3569 107.245 11.6191C106.839 10.8692 106.637 10.0209 106.637 9.07422C106.637 8.12743 106.839 7.29089 107.245 6.56543C107.663 5.82779 108.229 5.25005 108.942 4.83203C109.668 4.4141 110.504 4.20512 111.45 4.20508ZM126.371 4.20508C127.662 4.20508 128.64 4.49978 129.304 5.08984C129.968 5.66776 130.3 6.52306 130.3 7.6543V11.915C130.3 12.21 130.319 12.5111 130.355 12.8184C130.405 13.1257 130.472 13.4517 130.558 13.7959H128.234C128.173 13.55 128.124 13.2795 128.087 12.9844C128.071 12.789 128.061 12.5666 128.056 12.3174C127.808 12.799 127.464 13.182 127.017 13.4639C126.463 13.8081 125.781 13.9804 124.97 13.9805C124.023 13.9805 123.267 13.7465 122.701 13.2793C122.148 12.7998 121.871 12.1605 121.871 11.3613C121.871 10.5007 122.185 9.81858 122.812 9.31445C123.439 8.81032 124.324 8.47195 125.468 8.2998L127.976 7.91992V7.45117C127.976 6.95946 127.834 6.59065 127.552 6.34473C127.281 6.08658 126.863 5.95711 126.298 5.95703C125.745 5.95703 125.302 6.06162 124.97 6.27051C124.65 6.46724 124.453 6.75652 124.379 7.1377H122.147C122.246 6.26476 122.664 5.55761 123.401 5.0166C124.139 4.47558 125.129 4.20508 126.371 4.20508ZM146.146 4.20508C147.315 4.20508 148.249 4.45688 148.95 4.96094C149.663 5.45278 150.057 6.13577 150.131 7.00879H148.01C147.948 6.62761 147.751 6.33834 147.419 6.1416C147.099 5.94504 146.657 5.84672 146.092 5.84668C145.563 5.84668 145.163 5.9324 144.893 6.10449C144.622 6.26434 144.486 6.50452 144.486 6.82422C144.486 7.07007 144.592 7.27907 144.801 7.45117C145.01 7.61091 145.36 7.75211 145.852 7.875L147.475 8.24414C148.397 8.45312 149.091 8.8158 149.559 9.33203C150.038 9.84842 150.278 10.4574 150.278 11.1582C150.278 12.0558 149.934 12.7503 149.245 13.2422C148.557 13.734 147.592 13.9805 146.35 13.9805C145.046 13.9805 144.007 13.71 143.232 13.1689C142.458 12.6156 142.034 11.8532 141.96 10.8818H144.081C144.143 11.3613 144.37 11.7238 144.764 11.9697C145.157 12.2156 145.686 12.3389 146.35 12.3389C146.952 12.3389 147.401 12.2469 147.696 12.0625C148.004 11.8658 148.157 11.5889 148.157 11.2324C148.157 10.9744 148.071 10.7653 147.899 10.6055C147.727 10.4334 147.401 10.2913 146.922 10.1807L145.409 9.83008C144.376 9.60877 143.608 9.26502 143.104 8.79785C142.612 8.31837 142.365 7.72183 142.365 7.00879C142.365 6.13582 142.697 5.45277 143.361 4.96094C144.038 4.45684 144.966 4.20512 146.146 4.20508ZM155.225 4.38965H157.788V6.21582H155.225V10.7529C155.225 11.2075 155.347 11.5453 155.593 11.7666C155.839 11.9879 156.226 12.0986 156.755 12.0986C156.964 12.0986 157.149 12.0871 157.309 12.0625C157.481 12.0256 157.641 11.9818 157.788 11.9326V13.7402C157.641 13.814 157.431 13.8694 157.161 13.9062C156.891 13.9554 156.589 13.9805 156.257 13.9805C155.101 13.9804 154.247 13.7099 153.693 13.1689C153.152 12.6156 152.882 11.7916 152.882 10.6973V6.21582H151.074V4.38965H152.882V2.25L155.225 1.38281V4.38965ZM163.015 4.20508C164.183 4.20511 165.118 4.45684 165.818 4.96094C166.531 5.45277 166.924 6.13585 166.998 7.00879H164.877C164.815 6.62763 164.619 6.33834 164.287 6.1416C163.967 5.94487 163.525 5.84668 162.959 5.84668C162.43 5.84669 162.03 5.93236 161.76 6.10449C161.489 6.26434 161.354 6.50461 161.354 6.82422C161.355 7.07007 161.459 7.27907 161.668 7.45117C161.877 7.61102 162.228 7.75204 162.72 7.875L164.343 8.24414C165.265 8.45317 165.96 8.81573 166.427 9.33203C166.906 9.84842 167.145 10.4574 167.146 11.1582C167.146 12.0556 166.802 12.7504 166.113 13.2422C165.425 13.734 164.459 13.9805 163.217 13.9805C161.914 13.9804 160.875 13.7098 160.101 13.1689C159.326 12.6156 158.901 11.8532 158.827 10.8818H160.948C161.01 11.3613 161.238 11.7238 161.631 11.9697C162.024 12.2156 162.553 12.3388 163.217 12.3389C163.819 12.3389 164.268 12.2468 164.563 12.0625C164.871 11.8658 165.024 11.5889 165.024 11.2324C165.024 10.9743 164.939 10.7653 164.767 10.6055C164.594 10.4333 164.269 10.2913 163.789 10.1807L162.276 9.83008C161.244 9.60875 160.475 9.26505 159.971 8.79785C159.479 8.31839 159.233 7.72179 159.233 7.00879C159.233 6.13577 159.566 5.45278 160.229 4.96094C160.906 4.45691 161.834 4.20508 163.015 4.20508ZM57.3496 4.27832C58.1119 4.27837 58.7146 4.59268 59.1572 5.21973C59.5997 5.8468 59.8213 6.70761 59.8213 7.80176C59.8213 8.60094 59.6918 9.36971 59.4336 10.1074C59.1754 10.8451 58.8307 11.5032 58.4004 12.0811C57.9824 12.6588 57.5091 13.1197 56.9805 13.4639C56.4641 13.7958 55.9417 13.9619 55.4131 13.9619C54.6508 13.9619 54.0481 13.6484 53.6055 13.0215C53.1629 12.3822 52.9415 11.5213 52.9414 10.4395C52.9414 9.64023 53.0709 8.87154 53.3291 8.13379C53.5873 7.39611 53.9248 6.73802 54.3428 6.16016C54.7731 5.58224 55.2472 5.12691 55.7637 4.79492C56.2923 4.45082 56.821 4.27832 57.3496 4.27832ZM77.5732 0.313477C79.0486 0.31352 80.2228 0.676011 81.0957 1.40137C81.981 2.1145 82.4854 3.08593 82.6084 4.31543H80.3027C80.1675 3.57786 79.8603 3.03664 79.3809 2.69238C78.9014 2.33587 78.2557 2.1573 77.4443 2.15723C76.7312 2.15723 76.1651 2.29922 75.7471 2.58203C75.329 2.86484 75.1201 3.2523 75.1201 3.74414C75.1202 4.1498 75.2434 4.49361 75.4893 4.77637C75.7475 5.05917 76.2206 5.30562 76.9092 5.51465L79.3438 6.25195C80.561 6.60854 81.4467 7.09419 82 7.70898C82.5533 8.32378 82.8291 9.10497 82.8291 10.0518C82.8291 11.306 82.3925 12.271 81.5195 12.9473C80.6589 13.6234 79.4481 13.9619 77.8867 13.9619C76.2145 13.9619 74.8798 13.5807 73.8838 12.8184C72.9003 12.0437 72.3225 10.9553 72.1504 9.55371H74.4561C74.5667 10.3651 74.9293 10.9982 75.5439 11.4531C76.1587 11.8957 76.9641 12.1171 77.96 12.1172C78.7838 12.1172 79.4114 11.9699 79.8418 11.6748C80.2843 11.3674 80.5058 10.9432 80.5059 10.4023C80.5059 9.9228 80.3701 9.53534 80.0996 9.24023C79.8291 8.94521 79.3745 8.70492 78.7354 8.52051L76.3369 7.80176C75.1199 7.43292 74.2224 6.94711 73.6445 6.34473C73.079 5.74228 72.796 4.98595 72.7959 4.07617C72.7959 3.31392 72.9924 2.64955 73.3857 2.08398C73.7792 1.51842 74.3328 1.08181 75.0459 0.774414C75.7714 0.467014 76.6142 0.313477 77.5732 0.313477ZM5.60742 0.516602C6.55416 0.516616 7.37826 0.676411 8.0791 0.996094C8.77971 1.31575 9.31478 1.76408 9.68359 2.3418C10.0648 2.91971 10.2549 3.59644 10.2549 4.37109C10.2549 5.13341 10.0648 5.80395 9.68359 6.38184C9.31478 6.95954 8.7797 7.4079 8.0791 7.72754C7.37826 8.04722 6.55416 8.20702 5.60742 8.20703H5.52734L10.9189 13.7959H7.59961L2.72363 8.20703H2.39844V13.7959H0V0.516602H5.60742ZM53.7676 0C54.1977 2.96961e-05 54.5416 0.104578 54.7998 0.313477C55.0703 0.510213 55.2061 0.78697 55.2061 1.14355C55.206 1.41395 55.1319 1.63553 54.9844 1.80762C54.8493 1.9671 54.6774 2.04675 54.4688 2.04688C54.2108 2.04688 54.0383 1.97341 53.9521 1.82617C53.8784 1.6787 53.8293 1.50617 53.8047 1.30957C53.7924 1.11284 53.7548 0.94052 53.6934 0.792969C53.6319 0.645445 53.4908 0.571317 53.2695 0.571289C52.9867 0.571289 52.735 0.71329 52.5137 0.996094C52.3046 1.26659 52.1135 1.78262 51.9414 2.54492L51.5723 4.14941C51.5354 4.30925 51.6033 4.38963 51.7754 4.38965H53.251C53.4845 4.38965 53.5765 4.47539 53.5273 4.64746C53.4905 4.81961 53.3798 4.90625 53.1953 4.90625H51.5908C51.4681 4.90631 51.3885 4.96729 51.3516 5.08984L49.3779 13.5928C49.341 13.728 49.2544 13.7959 49.1191 13.7959H48.3447C48.185 13.7959 48.1233 13.7155 48.1602 13.5557L50.0234 5.58789C50.1339 5.13339 49.9863 4.90642 49.5811 4.90625H49.1934C48.9966 4.90625 48.8984 4.81961 48.8984 4.64746C48.8985 4.47545 49.0092 4.38965 49.2305 4.38965C49.6112 4.38962 49.8937 4.34036 50.0781 4.24219C50.2749 4.14382 50.4043 3.94647 50.4658 3.65137C50.6257 2.95064 50.8597 2.33 51.167 1.78906C51.4867 1.23574 51.8679 0.799189 52.3105 0.479492C52.7532 0.159826 53.2389 0 53.7676 0ZM67.0342 4.27832C67.3659 4.27841 67.6117 4.37131 67.7715 4.55566C67.9435 4.72774 68.0292 4.96725 68.0293 5.27441C68.0293 5.58181 67.9561 5.82826 67.8086 6.0127C67.661 6.19714 67.47 6.28906 67.2363 6.28906C67.0398 6.28902 66.8985 6.23989 66.8125 6.1416C66.7264 6.04323 66.6586 5.93253 66.6094 5.80957C66.5725 5.67435 66.5296 5.55733 66.4805 5.45898C66.4313 5.3607 66.3508 5.31152 66.2402 5.31152C66.0558 5.31184 65.8164 5.54576 65.5215 6.0127C65.2264 6.4799 64.9067 7.113 64.5625 7.91211C64.2305 8.69905 63.9047 9.58468 63.585 10.5684C63.2776 11.5519 63.007 12.56 62.7734 13.5928C62.7365 13.728 62.6499 13.7959 62.5146 13.7959H61.7588C61.5866 13.7959 61.5188 13.7155 61.5557 13.5557L63.3076 6.19727C63.3691 5.92695 63.3752 5.71785 63.3262 5.57031C63.2893 5.41046 63.1786 5.33008 62.9941 5.33008C62.7729 5.33024 62.5272 5.49632 62.2568 5.82812C61.9986 6.14782 61.7031 6.76295 61.3711 7.67285C61.3219 7.83237 61.2361 7.91206 61.1133 7.91211C60.9288 7.91211 60.8797 7.80141 60.9658 7.58008C61.2363 6.73176 61.5194 6.06739 61.8145 5.58789C62.1217 5.10865 62.4291 4.7709 62.7363 4.57422C63.0437 4.37748 63.3267 4.27832 63.585 4.27832C63.9906 4.27839 64.2791 4.43291 64.4512 4.74023C64.6233 5.03535 64.6296 5.52733 64.4697 6.21582L64.2676 7.08203C64.2553 7.16797 64.2733 7.2171 64.3223 7.22949C64.3714 7.24178 64.4143 7.21131 64.4512 7.1377C64.9184 6.06794 65.3434 5.32431 65.7246 4.90625C66.1058 4.48819 66.5423 4.27832 67.0342 4.27832ZM119.915 13.7959H117.592V4.38965H119.915V13.7959ZM135.162 13.7959H132.838V0.516602H135.162V13.7959ZM140.138 13.7959H137.813V4.38965H140.138V13.7959ZM57.3682 4.72168C56.9871 4.72168 56.6057 4.91196 56.2246 5.29297C55.8434 5.66185 55.4988 6.16002 55.1914 6.78711C54.8963 7.4142 54.6561 8.11501 54.4717 8.88965C54.2872 9.652 54.1953 10.4207 54.1953 11.1953C54.1953 12.7446 54.589 13.5195 55.376 13.5195C55.7694 13.5195 56.1507 13.3284 56.5195 12.9473C56.9006 12.5662 57.2454 12.0625 57.5527 11.4355C57.8601 10.8084 58.1056 10.1129 58.29 9.35059C58.4744 8.57616 58.5664 7.80177 58.5664 7.02734C58.5664 5.49053 58.1672 4.72187 57.3682 4.72168ZM125.854 9.71973C125.301 9.80579 124.883 9.95942 124.601 10.1807C124.33 10.402 124.194 10.71 124.194 11.1035C124.194 11.4598 124.324 11.736 124.582 11.9326C124.84 12.117 125.197 12.2099 125.651 12.21C126.315 12.21 126.869 12.0438 127.312 11.7119C127.754 11.3799 127.976 10.9737 127.976 10.4941V9.39648L125.854 9.71973ZM28.2578 6.10449C27.5203 6.10461 26.9236 6.36885 26.4688 6.89746C26.0138 7.41389 25.7871 8.146 25.7871 9.09277C25.7871 10.0392 26.0141 10.7707 26.4688 11.2871C26.9236 11.8035 27.5265 12.0624 28.2764 12.0625C29.0264 12.0625 29.6228 11.8035 30.0654 11.2871C30.5081 10.7584 30.7295 10.021 30.7295 9.07422C30.7295 8.12743 30.5028 7.39534 30.0479 6.87891C29.6052 6.3625 29.0079 6.10449 28.2578 6.10449ZM89.5195 6.10449C88.7819 6.10449 88.1854 6.36888 87.7305 6.89746C87.2755 7.41389 87.0479 8.14598 87.0479 9.09277C87.0479 10.0394 87.2757 10.7707 87.7305 11.2871C88.1854 11.8035 88.788 12.0625 89.5381 12.0625C90.2881 12.0625 90.8845 11.8035 91.3271 11.2871C91.7696 10.7584 91.9912 10.0208 91.9912 9.07422C91.9912 8.12743 91.7635 7.39534 91.3086 6.87891C90.866 6.36266 90.2695 6.10449 89.5195 6.10449ZM100.677 5.95703C99.89 5.95706 99.2631 6.22772 98.7959 6.76855C98.4926 7.12924 98.2925 7.59708 98.1914 8.1709H102.961C102.903 7.50354 102.709 6.98664 102.374 6.62109C101.968 6.17844 101.402 5.95703 100.677 5.95703ZM2.39844 6.38184H5.5332C6.30765 6.38184 6.89795 6.20307 7.30371 5.84668C7.72175 5.49011 7.93162 4.99814 7.93164 4.37109C7.93164 3.744 7.72803 3.26461 7.32227 2.93262C6.9165 2.58836 6.32011 2.41602 5.5332 2.41602H2.39844V6.38184ZM120.008 2.83984H117.48V0.276367H120.008V2.83984ZM140.229 2.83984H137.703V0.276367H140.229V2.83984Z" fill="black"/>
</svg>
