<svg width="145" height="18" viewBox="0 0 145 18" fill="none" xmlns="http://www.w3.org/2000/svg">
<path d="M38.6309 10.6377L40.9922 4.38965H43.4639L37.8389 17.5771H35.4775L37.3896 13.2861L33.7441 4.38965H36.2705L38.6309 10.6377ZM14.3975 10.3281C14.3975 10.9059 14.5386 11.3426 14.8213 11.6377C15.1164 11.9328 15.5289 12.0811 16.0576 12.0811C16.537 12.081 16.9551 11.9702 17.3115 11.749C17.6804 11.5277 17.9697 11.2196 18.1787 10.8262C18.3999 10.4206 18.5107 9.96577 18.5107 9.46191V4.38965H20.8525V13.7959H18.584V12.04C18.2849 12.5779 17.8807 13.0229 17.3672 13.3721C16.7647 13.7778 16.0513 13.9804 15.2275 13.9805C14.5758 13.9805 14.0098 13.8447 13.5303 13.5742C13.0632 13.2914 12.7005 12.9101 12.4424 12.4307C12.1965 11.9512 12.0732 11.41 12.0732 10.8076V4.38965H14.3975V10.3281ZM25.8232 5.96484C26.0241 5.49949 26.344 5.11542 26.7832 4.81348C27.3856 4.40788 28.1295 4.20508 29.0146 4.20508C29.8505 4.2051 30.5758 4.40791 31.1904 4.81348C31.8175 5.20695 32.3041 5.76672 32.6484 6.49219C32.9926 7.21756 33.164 8.07216 33.1641 9.05566C33.1641 10.0515 32.9864 10.9185 32.6299 11.6562C32.2733 12.394 31.7751 12.9663 31.1357 13.3721C30.4964 13.7778 29.7401 13.9804 28.8672 13.9805C27.9696 13.9805 27.2312 13.7716 26.6533 13.3535C26.246 13.0436 25.9527 12.6496 25.7686 12.1738V13.7959H23.5V0.516602H25.8232V5.96484ZM88.7451 4.20508C90.036 4.20508 91.0138 4.49983 91.6777 5.08984C92.3417 5.66776 92.6738 6.52306 92.6738 7.6543V11.915C92.6738 12.21 92.6926 12.5111 92.7295 12.8184C92.7787 13.1257 92.8456 13.4517 92.9316 13.7959H90.6084C90.5469 13.55 90.4978 13.2795 90.4609 12.9844C90.4447 12.7893 90.4352 12.5672 90.4297 12.3184C90.1824 12.7996 89.8374 13.1822 89.3906 13.4639C88.8374 13.8081 88.1551 13.9804 87.3438 13.9805C86.397 13.9805 85.6408 13.7465 85.0752 13.2793C84.5219 12.7998 84.2451 12.1605 84.2451 11.3613C84.2451 10.5007 84.5586 9.81857 85.1855 9.31445C85.8126 8.81032 86.6983 8.47195 87.8418 8.2998L90.3496 7.91992V7.45117C90.3496 6.95941 90.2085 6.59065 89.9258 6.34473C89.6553 6.08656 89.2373 5.95708 88.6719 5.95703C88.1187 5.95703 87.6757 6.06158 87.3438 6.27051C87.0241 6.46724 86.8267 6.75652 86.7529 7.1377H84.5215C84.6198 6.2648 85.0378 5.5576 85.7754 5.0166C86.5131 4.4756 87.5033 4.20511 88.7451 4.20508ZM97.8984 4.38965H100.462V6.21582H97.8984V10.7529C97.8985 11.2076 98.0218 11.5453 98.2676 11.7666C98.5135 11.9879 98.901 12.0986 99.4297 12.0986C99.6385 12.0986 99.8227 12.087 99.9824 12.0625C100.154 12.0256 100.314 11.9818 100.462 11.9326V13.7402C100.314 13.814 100.105 13.8694 99.835 13.9062C99.5645 13.9554 99.2635 13.9805 98.9316 13.9805C97.776 13.9805 96.9215 13.7098 96.3682 13.1689C95.8271 12.6156 95.5566 11.7916 95.5566 10.6973V6.21582H93.749V4.38965H95.5566V2.25L97.8984 1.38281V4.38965ZM111.457 4.20508C112.391 4.20508 113.203 4.40162 113.892 4.79492C114.58 5.17609 115.116 5.71713 115.497 6.41797C115.878 7.11878 116.068 7.9367 116.068 8.87109C116.068 9.04313 116.062 9.20311 116.05 9.35059C116.038 9.49814 116.02 9.64639 115.995 9.79395H108.896C108.979 10.4762 109.193 11.0238 109.539 11.4355C110.006 11.9641 110.664 12.2285 111.513 12.2285C112.005 12.2285 112.435 12.1356 112.804 11.9512C113.172 11.7668 113.443 11.4845 113.615 11.1035H115.811C115.503 11.9887 114.98 12.6897 114.242 13.2061C113.517 13.7223 112.601 13.9805 111.494 13.9805C110.498 13.9804 109.625 13.7716 108.875 13.3535C108.137 12.9355 107.56 12.3569 107.142 11.6191C106.736 10.8814 106.533 10.0332 106.533 9.07422C106.533 8.11527 106.736 7.27325 107.142 6.54785C107.56 5.81014 108.137 5.2378 108.875 4.83203C109.613 4.41402 110.474 4.20513 111.457 4.20508ZM132.318 4.38965H134.882V6.21582H132.318V10.7529C132.318 11.2077 132.442 11.5453 132.688 11.7666C132.933 11.9879 133.321 12.0986 133.85 12.0986C134.058 12.0986 134.243 12.0871 134.402 12.0625C134.574 12.0256 134.734 11.9818 134.882 11.9326V13.7402C134.734 13.814 134.525 13.8694 134.255 13.9062C133.984 13.9554 133.683 13.9805 133.352 13.9805C132.196 13.9805 131.34 13.71 130.787 13.1689C130.246 12.6156 129.976 11.7915 129.976 10.6973V6.21582H128.168V4.38965H129.976V2.25L132.318 1.38281V4.38965ZM140.108 4.20508C141.276 4.20508 142.211 4.45682 142.912 4.96094C143.625 5.45278 144.019 6.13577 144.093 7.00879H141.972C141.91 6.62761 141.713 6.33834 141.381 6.1416C141.061 5.94495 140.618 5.84668 140.053 5.84668C139.524 5.84673 139.125 5.9325 138.854 6.10449C138.584 6.26434 138.448 6.50452 138.448 6.82422C138.448 7.06999 138.553 7.2791 138.762 7.45117C138.971 7.61102 139.322 7.75204 139.813 7.875L141.437 8.24414C142.359 8.45314 143.053 8.81576 143.521 9.33203C144 9.84842 144.24 10.4574 144.24 11.1582C144.24 12.0557 143.896 12.7504 143.207 13.2422C142.518 13.734 141.553 13.9804 140.312 13.9805C139.008 13.9805 137.969 13.7099 137.194 13.1689C136.42 12.6156 135.996 11.8532 135.922 10.8818H138.043C138.104 11.3613 138.332 11.7238 138.726 11.9697C139.119 12.2156 139.648 12.3389 140.312 12.3389C140.914 12.3389 141.363 12.2469 141.658 12.0625C141.965 11.8658 142.119 11.5888 142.119 11.2324C142.119 10.9742 142.032 10.7653 141.86 10.6055C141.688 10.4333 141.362 10.2913 140.883 10.1807L139.371 9.83008C138.338 9.60879 137.57 9.26498 137.065 8.79785C136.574 8.31837 136.327 7.72183 136.327 7.00879C136.327 6.13577 136.659 5.45278 137.323 4.96094C138 4.45681 138.928 4.20509 140.108 4.20508ZM57.3496 4.27832C58.1119 4.27837 58.7146 4.59268 59.1572 5.21973C59.5997 5.8468 59.8213 6.70761 59.8213 7.80176C59.8213 8.60094 59.6918 9.36971 59.4336 10.1074C59.1754 10.8451 58.8307 11.5032 58.4004 12.0811C57.9824 12.6588 57.5091 13.1197 56.9805 13.4639C56.4641 13.7958 55.9417 13.9619 55.4131 13.9619C54.6508 13.9619 54.0481 13.6484 53.6055 13.0215C53.1629 12.3822 52.9415 11.5213 52.9414 10.4395C52.9414 9.64023 53.0709 8.87154 53.3291 8.13379C53.5873 7.39611 53.9248 6.73802 54.3428 6.16016C54.7731 5.58224 55.2472 5.12691 55.7637 4.79492C56.2923 4.45082 56.821 4.27832 57.3496 4.27832ZM5.60742 0.516602C6.55416 0.516616 7.37826 0.676411 8.0791 0.996094C8.77971 1.31575 9.31478 1.76408 9.68359 2.3418C10.0648 2.91971 10.2549 3.59644 10.2549 4.37109C10.2549 5.13341 10.0648 5.80395 9.68359 6.38184C9.31478 6.95954 8.7797 7.4079 8.0791 7.72754C7.37826 8.04722 6.55416 8.20702 5.60742 8.20703H5.52734L10.9189 13.7959H7.59961L2.72363 8.20703H2.39844V13.7959H0V0.516602H5.60742ZM53.7676 0C54.1977 2.96961e-05 54.5416 0.104578 54.7998 0.313477C55.0703 0.510213 55.2061 0.78697 55.2061 1.14355C55.206 1.41395 55.1319 1.63553 54.9844 1.80762C54.8493 1.9671 54.6774 2.04675 54.4688 2.04688C54.2108 2.04688 54.0383 1.97341 53.9521 1.82617C53.8784 1.6787 53.8293 1.50617 53.8047 1.30957C53.7924 1.11284 53.7548 0.94052 53.6934 0.792969C53.6319 0.645445 53.4908 0.571317 53.2695 0.571289C52.9867 0.571289 52.735 0.71329 52.5137 0.996094C52.3046 1.26659 52.1135 1.78262 51.9414 2.54492L51.5723 4.14941C51.5354 4.30925 51.6033 4.38963 51.7754 4.38965H53.251C53.4845 4.38965 53.5765 4.47539 53.5273 4.64746C53.4905 4.81961 53.3798 4.90625 53.1953 4.90625H51.5908C51.4681 4.90631 51.3885 4.96729 51.3516 5.08984L49.3779 13.5928C49.341 13.728 49.2544 13.7959 49.1191 13.7959H48.3447C48.185 13.7959 48.1233 13.7155 48.1602 13.5557L50.0234 5.58789C50.1339 5.13339 49.9863 4.90642 49.5811 4.90625H49.1934C48.9966 4.90625 48.8984 4.81961 48.8984 4.64746C48.8985 4.47545 49.0092 4.38965 49.2305 4.38965C49.6112 4.38962 49.8937 4.34036 50.0781 4.24219C50.2749 4.14382 50.4043 3.94647 50.4658 3.65137C50.6257 2.95064 50.8597 2.33 51.167 1.78906C51.4867 1.23574 51.8679 0.799189 52.3105 0.479492C52.7532 0.159826 53.2389 0 53.7676 0ZM67.0342 4.27832C67.3659 4.27841 67.6117 4.37131 67.7715 4.55566C67.9435 4.72774 68.0292 4.96725 68.0293 5.27441C68.0293 5.58181 67.9561 5.82826 67.8086 6.0127C67.661 6.19714 67.47 6.28906 67.2363 6.28906C67.0398 6.28902 66.8985 6.23989 66.8125 6.1416C66.7264 6.04323 66.6586 5.93253 66.6094 5.80957C66.5725 5.67435 66.5296 5.55733 66.4805 5.45898C66.4313 5.3607 66.3508 5.31152 66.2402 5.31152C66.0558 5.31184 65.8164 5.54576 65.5215 6.0127C65.2264 6.4799 64.9067 7.113 64.5625 7.91211C64.2305 8.69905 63.9047 9.58468 63.585 10.5684C63.2776 11.5519 63.007 12.56 62.7734 13.5928C62.7365 13.728 62.6499 13.7959 62.5146 13.7959H61.7588C61.5866 13.7959 61.5188 13.7155 61.5557 13.5557L63.3076 6.19727C63.3691 5.92695 63.3752 5.71785 63.3262 5.57031C63.2893 5.41046 63.1786 5.33008 62.9941 5.33008C62.7729 5.33024 62.5272 5.49632 62.2568 5.82812C61.9986 6.14782 61.7031 6.76295 61.3711 7.67285C61.3219 7.83237 61.2361 7.91206 61.1133 7.91211C60.9288 7.91211 60.8797 7.80141 60.9658 7.58008C61.2363 6.73176 61.5194 6.06739 61.8145 5.58789C62.1217 5.10865 62.4291 4.7709 62.7363 4.57422C63.0437 4.37748 63.3267 4.27832 63.585 4.27832C63.9906 4.27839 64.2791 4.43291 64.4512 4.74023C64.6233 5.03535 64.6296 5.52733 64.4697 6.21582L64.2676 7.08203C64.2553 7.16797 64.2733 7.2171 64.3223 7.22949C64.3714 7.24178 64.4143 7.21131 64.4512 7.1377C64.9184 6.06794 65.3434 5.32431 65.7246 4.90625C66.1058 4.48819 66.5423 4.27832 67.0342 4.27832ZM78.6982 0.516602C79.6696 0.516622 80.4999 0.682676 81.1885 1.01465C81.8891 1.34662 82.4242 1.81367 82.793 2.41602C83.1741 3.01848 83.3643 3.73193 83.3643 4.55566C83.3642 5.36711 83.1741 6.08057 82.793 6.69531C82.4119 7.30997 81.8769 7.78953 81.1885 8.13379C80.4999 8.46576 79.6696 8.63182 78.6982 8.63184H75.1387V13.7959H72.7402V0.516602H78.6982ZM104.655 13.7959H102.331V4.38965H104.655V13.7959ZM123.691 4.20508C124.712 4.20513 125.505 4.4944 126.07 5.07227C126.648 5.65008 126.937 6.41814 126.938 7.37695V13.7959H124.595V7.85645C124.595 7.27895 124.447 6.84287 124.152 6.54785C123.857 6.25278 123.427 6.10452 122.861 6.10449C122.37 6.10449 121.927 6.21523 121.533 6.43652C121.152 6.65785 120.851 6.9659 120.63 7.35938C120.421 7.75277 120.315 8.20733 120.315 8.72363V13.7959H117.992V4.38965H120.261V6.12402C120.567 5.59785 120.971 5.1663 121.478 4.83203C122.092 4.41397 122.831 4.20508 123.691 4.20508ZM57.3682 4.72168C56.9871 4.72168 56.6057 4.91196 56.2246 5.29297C55.8434 5.66185 55.4988 6.16002 55.1914 6.78711C54.8963 7.4142 54.6561 8.11501 54.4717 8.88965C54.2872 9.652 54.1953 10.4207 54.1953 11.1953C54.1953 12.7446 54.589 13.5195 55.376 13.5195C55.7694 13.5195 56.1507 13.3284 56.5195 12.9473C56.9006 12.5662 57.2454 12.0625 57.5527 11.4355C57.8601 10.8084 58.1056 10.1129 58.29 9.35059C58.4744 8.57616 58.5664 7.80177 58.5664 7.02734C58.5664 5.49053 58.1672 4.72187 57.3682 4.72168ZM88.2285 9.71973C87.6754 9.8058 87.2574 9.9594 86.9746 10.1807C86.7041 10.402 86.5693 10.71 86.5693 11.1035C86.5694 11.4597 86.6982 11.736 86.9561 11.9326C87.2143 12.1171 87.5714 12.21 88.0264 12.21C88.69 12.2099 89.243 12.0437 89.6855 11.7119C90.1282 11.3799 90.3496 10.9737 90.3496 10.4941V9.39648L88.2285 9.71973ZM28.2578 6.10449C27.5203 6.10461 26.9236 6.36885 26.4688 6.89746C26.0138 7.41389 25.7871 8.146 25.7871 9.09277C25.7871 10.0392 26.0141 10.7707 26.4688 11.2871C26.9236 11.8035 27.5265 12.0624 28.2764 12.0625C29.0264 12.0625 29.6228 11.8035 30.0654 11.2871C30.5081 10.7584 30.7295 10.021 30.7295 9.07422C30.7295 8.12743 30.5028 7.39534 30.0479 6.87891C29.6052 6.3625 29.0079 6.10449 28.2578 6.10449ZM111.421 5.95703C110.634 5.95703 110.006 6.22754 109.539 6.76855C109.236 7.12922 109.037 7.59712 108.936 8.1709H113.705C113.647 7.50345 113.452 6.98665 113.117 6.62109C112.711 6.1786 112.146 5.95711 111.421 5.95703ZM75.1387 6.75H78.5869C79.3493 6.75 79.9341 6.55363 80.3398 6.16016C80.7578 5.76674 80.9667 5.23179 80.9668 4.55566C80.9668 3.89168 80.7579 3.36848 80.3398 2.9873C79.9341 2.60616 79.3492 2.41602 78.5869 2.41602H75.1387V6.75ZM2.39844 6.38184H5.5332C6.30765 6.38184 6.89795 6.20307 7.30371 5.84668C7.72175 5.49011 7.93162 4.99814 7.93164 4.37109C7.93164 3.744 7.72803 3.26461 7.32227 2.93262C6.9165 2.58836 6.32011 2.41602 5.5332 2.41602H2.39844V6.38184ZM104.747 2.83984H102.221V0.276367H104.747V2.83984Z" fill="white"/>
</svg>
