<svg width="191" height="18" viewBox="0 0 191 18" fill="none" xmlns="http://www.w3.org/2000/svg">
<path d="M38.6309 10.6377L40.9922 4.38965H43.4639L37.8389 17.5771H35.4775L37.3896 13.2861L33.7441 4.38965H36.2705L38.6309 10.6377ZM14.3975 10.3281C14.3975 10.9059 14.5386 11.3426 14.8213 11.6377C15.1164 11.9328 15.5289 12.0811 16.0576 12.0811C16.537 12.081 16.9551 11.9702 17.3115 11.749C17.6804 11.5277 17.9697 11.2196 18.1787 10.8262C18.3999 10.4206 18.5107 9.96577 18.5107 9.46191V4.38965H20.8525V13.7959H18.584V12.04C18.2849 12.5779 17.8807 13.0229 17.3672 13.3721C16.7647 13.7778 16.0513 13.9804 15.2275 13.9805C14.5758 13.9805 14.0098 13.8447 13.5303 13.5742C13.0632 13.2914 12.7005 12.9101 12.4424 12.4307C12.1965 11.9512 12.0732 11.41 12.0732 10.8076V4.38965H14.3975V10.3281ZM25.8232 5.96484C26.0241 5.49949 26.344 5.11542 26.7832 4.81348C27.3856 4.40788 28.1295 4.20508 29.0146 4.20508C29.8505 4.2051 30.5758 4.40791 31.1904 4.81348C31.8175 5.20695 32.3041 5.76672 32.6484 6.49219C32.9926 7.21756 33.164 8.07216 33.1641 9.05566C33.1641 10.0515 32.9864 10.9185 32.6299 11.6562C32.2733 12.394 31.7751 12.9663 31.1357 13.3721C30.4964 13.7778 29.7401 13.9804 28.8672 13.9805C27.9696 13.9805 27.2312 13.7716 26.6533 13.3535C26.246 13.0436 25.9527 12.6496 25.7686 12.1738V13.7959H23.5V0.516602H25.8232V5.96484ZM96.8799 4.20508C97.8882 4.20508 98.7675 4.41397 99.5176 4.83203C100.268 5.2378 100.851 5.80385 101.27 6.5293C101.687 7.25468 101.896 8.09672 101.896 9.05566C101.896 10.0147 101.681 10.8691 101.251 11.6191C100.833 12.3569 100.249 12.9355 99.499 13.3535C98.749 13.7715 97.8758 13.9805 96.8799 13.9805C95.8839 13.9805 95.0045 13.7716 94.2422 13.3535C93.4922 12.9355 92.9083 12.3569 92.4902 11.6191C92.0723 10.8692 91.8633 10.0146 91.8633 9.05566C91.8633 8.09675 92.0723 7.25467 92.4902 6.5293C92.9083 5.80389 93.4922 5.23779 94.2422 4.83203C95.0045 4.41398 95.8839 4.20509 96.8799 4.20508ZM114.43 4.20508C115.364 4.20508 116.176 4.40157 116.864 4.79492C117.553 5.17602 118.088 5.71729 118.469 6.41797C118.85 7.11878 119.041 7.9367 119.041 8.87109C119.041 9.04312 119.035 9.20312 119.022 9.35059C119.01 9.49814 118.991 9.64639 118.967 9.79395H111.869C111.952 10.4762 112.166 11.0238 112.512 11.4355C112.979 11.9641 113.637 12.2285 114.485 12.2285C114.977 12.2285 115.408 12.1356 115.776 11.9512C116.145 11.7668 116.416 11.4845 116.588 11.1035H118.782C118.475 11.9886 117.952 12.6897 117.215 13.2061C116.489 13.7224 115.573 13.9805 114.467 13.9805C113.471 13.9805 112.598 13.7716 111.848 13.3535C111.11 12.9355 110.532 12.3569 110.114 11.6191C109.709 10.8814 109.505 10.0332 109.505 9.07422C109.505 8.11524 109.709 7.27326 110.114 6.54785C110.532 5.8101 111.11 5.2378 111.848 4.83203C112.585 4.414 113.446 4.20511 114.43 4.20508ZM124.412 4.20508C125.58 4.20508 126.515 4.45681 127.216 4.96094C127.929 5.45278 128.323 6.13577 128.396 7.00879H126.275C126.214 6.62761 126.017 6.33834 125.685 6.1416C125.365 5.94494 124.922 5.84668 124.356 5.84668C123.828 5.84672 123.429 5.93251 123.158 6.10449C122.888 6.26434 122.752 6.50452 122.752 6.82422C122.752 7.07 122.857 7.27909 123.065 7.45117C123.274 7.61102 123.625 7.75204 124.117 7.875L125.74 8.24414C126.662 8.45314 127.357 8.81576 127.824 9.33203C128.304 9.84842 128.544 10.4574 128.544 11.1582C128.544 12.0557 128.199 12.7504 127.511 13.2422C126.822 13.734 125.857 13.9804 124.615 13.9805C123.312 13.9805 122.273 13.7099 121.498 13.1689C120.723 12.6156 120.299 11.8532 120.226 10.8818H122.347C122.408 11.3613 122.636 11.7238 123.029 11.9697C123.423 12.2156 123.951 12.3389 124.615 12.3389C125.218 12.3388 125.667 12.2469 125.962 12.0625C126.269 11.8658 126.423 11.5888 126.423 11.2324C126.423 10.9742 126.336 10.7653 126.164 10.6055C125.992 10.4333 125.666 10.2913 125.187 10.1807L123.675 9.83008C122.642 9.60879 121.873 9.26497 121.369 8.79785C120.877 8.31837 120.631 7.72183 120.631 7.00879C120.631 6.13577 120.963 5.45278 121.627 4.96094C122.303 4.45682 123.232 4.20508 124.412 4.20508ZM133.873 4.20508C135.041 4.20514 135.975 4.45703 136.676 4.96094C137.389 5.45278 137.783 6.13577 137.856 7.00879H135.735C135.674 6.62767 135.477 6.33834 135.146 6.1416C134.826 5.94487 134.383 5.84669 133.817 5.84668C133.289 5.84668 132.889 5.93235 132.618 6.10449C132.348 6.26434 132.213 6.50456 132.213 6.82422C132.213 7.07007 132.317 7.27907 132.526 7.45117C132.735 7.61094 133.086 7.75208 133.577 7.875L135.2 8.24414C136.122 8.45317 136.818 8.81562 137.285 9.33203C137.765 9.84842 138.004 10.4574 138.004 11.1582C138.004 12.0556 137.66 12.7504 136.972 13.2422C136.283 13.734 135.317 13.9805 134.075 13.9805C132.772 13.9804 131.733 13.7099 130.958 13.1689C130.184 12.6157 129.759 11.8531 129.686 10.8818H131.807C131.868 11.3613 132.096 11.7238 132.489 11.9697C132.883 12.2156 133.411 12.3388 134.075 12.3389C134.678 12.3389 135.127 12.2469 135.422 12.0625C135.729 11.8658 135.883 11.5889 135.883 11.2324C135.883 10.9743 135.797 10.7653 135.625 10.6055C135.453 10.4333 135.127 10.2913 134.647 10.1807L133.135 9.83008C132.102 9.60875 131.333 9.26507 130.829 8.79785C130.337 8.31837 130.092 7.72183 130.092 7.00879C130.092 6.13577 130.424 5.45278 131.088 4.96094C131.764 4.45696 132.693 4.20508 133.873 4.20508ZM149.05 4.20508C150.058 4.20508 150.937 4.41397 151.688 4.83203C152.438 5.2378 153.021 5.80384 153.439 6.5293C153.857 7.25469 154.066 8.09671 154.066 9.05566C154.066 10.0147 153.851 10.8691 153.421 11.6191C153.003 12.3569 152.419 12.9355 151.669 13.3535C150.919 13.7715 150.046 13.9805 149.05 13.9805C148.054 13.9805 147.174 13.7716 146.412 13.3535C145.662 12.9355 145.078 12.3569 144.66 11.6191C144.242 10.8692 144.033 10.0146 144.033 9.05566C144.033 8.09676 144.242 7.25466 144.66 6.5293C145.078 5.8039 145.662 5.23779 146.412 4.83203C147.174 4.41398 148.054 4.2051 149.05 4.20508ZM171.261 4.20508C172.552 4.2051 173.529 4.49974 174.193 5.08984C174.857 5.66776 175.189 6.52306 175.189 7.6543V11.915C175.189 12.21 175.207 12.5111 175.244 12.8184C175.293 13.1258 175.361 13.4516 175.447 13.7959H173.123C173.062 13.55 173.012 13.2794 172.976 12.9844C172.959 12.789 172.951 12.5666 172.945 12.3174C172.698 12.799 172.353 13.182 171.906 13.4639C171.353 13.8082 170.67 13.9805 169.858 13.9805C168.912 13.9804 168.155 13.7465 167.59 13.2793C167.037 12.7998 166.76 12.1604 166.76 11.3613C166.76 10.5006 167.074 9.81859 167.701 9.31445C168.328 8.81038 169.213 8.47197 170.356 8.2998L172.865 7.91992V7.45117C172.865 6.95953 172.724 6.59065 172.441 6.34473C172.171 6.08651 171.752 5.95703 171.187 5.95703C170.633 5.95707 170.19 6.06151 169.858 6.27051C169.539 6.46724 169.342 6.75661 169.269 7.1377H167.037C167.135 6.26471 167.553 5.55762 168.291 5.0166C169.029 4.47558 170.019 4.20508 171.261 4.20508ZM186.097 4.20508C187.265 4.20508 188.2 4.4568 188.9 4.96094C189.614 5.45278 190.007 6.13579 190.081 7.00879H187.96C187.898 6.62761 187.701 6.33834 187.369 6.1416C187.049 5.94491 186.607 5.84668 186.041 5.84668C185.513 5.84671 185.113 5.93252 184.843 6.10449C184.572 6.26434 184.437 6.50452 184.437 6.82422C184.437 7.07002 184.541 7.27909 184.75 7.45117C184.959 7.61102 185.31 7.75204 185.802 7.875L187.425 8.24414C188.347 8.45315 189.042 8.81575 189.509 9.33203C189.988 9.84842 190.228 10.4574 190.229 11.1582C190.229 12.0557 189.884 12.7504 189.195 13.2422C188.507 13.734 187.542 13.9804 186.3 13.9805C184.997 13.9805 183.957 13.7099 183.183 13.1689C182.408 12.6156 181.984 11.8532 181.91 10.8818H184.031C184.093 11.3611 184.32 11.7238 184.713 11.9697C185.106 12.2156 185.636 12.3389 186.3 12.3389C186.902 12.3388 187.35 12.2467 187.646 12.0625C187.953 11.8658 188.107 11.5889 188.107 11.2324C188.107 10.9742 188.021 10.7653 187.849 10.6055C187.676 10.4333 187.351 10.2913 186.871 10.1807L185.359 9.83008C184.327 9.6088 183.558 9.26495 183.054 8.79785C182.562 8.31837 182.315 7.72183 182.315 7.00879C182.315 6.13577 182.648 5.45278 183.312 4.96094C183.988 4.45684 184.916 4.20508 186.097 4.20508ZM57.3486 4.27832C58.111 4.27832 58.7136 4.59263 59.1562 5.21973C59.5988 5.8468 59.8203 6.70754 59.8203 7.80176C59.8203 8.60094 59.6908 9.36971 59.4326 10.1074C59.1744 10.845 58.8307 11.5032 58.4004 12.0811C57.9823 12.6589 57.5082 13.1196 56.9795 13.4639C56.4631 13.7958 55.9408 13.9619 55.4121 13.9619C54.6498 13.9619 54.0471 13.6485 53.6045 13.0215C53.1619 12.3822 52.9405 11.5213 52.9404 10.4395C52.9404 9.64025 53.0699 8.87152 53.3281 8.13379C53.5863 7.39603 53.9247 6.73807 54.3428 6.16016C54.7731 5.58232 55.2463 5.12688 55.7627 4.79492C56.2913 4.45076 56.82 4.27833 57.3486 4.27832ZM5.60742 0.516602C6.55416 0.516616 7.37826 0.676411 8.0791 0.996094C8.77971 1.31575 9.31478 1.76408 9.68359 2.3418C10.0648 2.91971 10.2549 3.59644 10.2549 4.37109C10.2549 5.13341 10.0648 5.80395 9.68359 6.38184C9.31478 6.95954 8.7797 7.4079 8.0791 7.72754C7.37826 8.04722 6.55416 8.20702 5.60742 8.20703H5.52734L10.9189 13.7959H7.59961L2.72363 8.20703H2.39844V13.7959H0V0.516602H5.60742ZM53.7666 0C54.197 0 54.5416 0.104444 54.7998 0.313477C55.0701 0.510201 55.2051 0.787085 55.2051 1.14355C55.205 1.41394 55.1319 1.63553 54.9844 1.80762C54.8492 1.96741 54.6767 2.04681 54.4678 2.04688C54.2098 2.04688 54.0373 1.97348 53.9512 1.82617C53.8774 1.6787 53.8283 1.50618 53.8037 1.30957C53.7914 1.11295 53.7548 0.940462 53.6934 0.792969C53.6319 0.645417 53.4899 0.571289 53.2686 0.571289C52.9858 0.571329 52.734 0.713325 52.5127 0.996094C52.3037 1.26663 52.1125 1.7827 51.9404 2.54492L51.5723 4.14941C51.5354 4.30917 51.6025 4.38956 51.7744 4.38965H53.25C53.4835 4.38965 53.5763 4.47552 53.5273 4.64746C53.4905 4.81948 53.3795 4.90612 53.1953 4.90625H51.5898C51.4673 4.90639 51.3875 4.96733 51.3506 5.08984L49.377 13.5928C49.3401 13.7279 49.2542 13.7958 49.1191 13.7959H48.3438C48.1842 13.7958 48.1233 13.7154 48.1602 13.5557L50.0225 5.58789C50.1329 5.13327 49.9856 4.90633 49.5801 4.90625H49.1924C48.9958 4.9062 48.8975 4.81956 48.8975 4.64746C48.8975 4.47545 49.0082 4.38965 49.2295 4.38965C49.6106 4.38964 49.8937 4.34055 50.0781 4.24219C50.2748 4.1438 50.4034 3.94642 50.4648 3.65137C50.6247 2.95067 50.8587 2.32998 51.166 1.78906C51.4857 1.23578 51.867 0.799183 52.3096 0.479492C52.7522 0.159808 53.2379 1.22295e-05 53.7666 0ZM67.0332 4.27832C67.3651 4.27836 67.6107 4.37127 67.7705 4.55566C67.9426 4.72775 68.0292 4.96718 68.0293 5.27441C68.0293 5.58181 67.9552 5.82826 67.8076 6.0127C67.6602 6.19694 67.4697 6.28894 67.2363 6.28906C67.0396 6.28906 66.8976 6.23997 66.8115 6.1416C66.7255 6.04325 66.6576 5.9325 66.6084 5.80957C66.5715 5.67438 66.5287 5.55732 66.4795 5.45898C66.4304 5.36088 66.3506 5.31163 66.2402 5.31152C66.0558 5.31152 65.8156 5.54545 65.5205 6.0127C65.2254 6.4799 64.9058 7.11302 64.5615 7.91211C64.2295 8.69905 63.9037 9.58468 63.584 10.5684C63.2766 11.5519 63.0061 12.56 62.7725 13.5928C62.7356 13.7279 62.6496 13.7957 62.5146 13.7959H61.7578C61.5858 13.7958 61.5178 13.7155 61.5547 13.5557L63.3076 6.19727C63.369 5.92709 63.3752 5.71783 63.3262 5.57031C63.2893 5.41058 63.1783 5.3302 62.9941 5.33008C62.7728 5.33008 62.5264 5.49613 62.2559 5.82812C61.9977 6.14784 61.7031 6.76302 61.3711 7.67285C61.3219 7.83256 61.2352 7.91211 61.1123 7.91211C60.928 7.91206 60.8788 7.80136 60.9648 7.58008C61.2353 6.73173 61.5184 6.06741 61.8135 5.58789C62.1207 5.10868 62.4281 4.77093 62.7354 4.57422C63.0428 4.37748 63.3258 4.27832 63.584 4.27832C63.9897 4.27833 64.279 4.43285 64.4512 4.74023C64.6231 5.03539 64.6295 5.52758 64.4697 6.21582L64.2666 7.08203C64.2543 7.16783 64.2724 7.217 64.3213 7.22949C64.3705 7.24179 64.4143 7.21147 64.4512 7.1377C64.9184 6.06807 65.3425 5.32433 65.7236 4.90625C66.1048 4.48819 66.5414 4.27832 67.0332 4.27832ZM78.6982 0.516602C79.6696 0.516602 80.4999 0.682656 81.1885 1.01465C81.8893 1.34663 82.4241 1.81356 82.793 2.41602C83.1741 3.01852 83.3652 3.73183 83.3652 4.55566C83.3652 5.36711 83.1741 6.08057 82.793 6.69531C82.4118 7.30994 81.8769 7.78957 81.1885 8.13379C80.4999 8.46573 79.6696 8.63184 78.6982 8.63184H75.1387V13.7959H72.7412V0.516602H78.6982ZM90.4287 4.20508C90.6869 4.20508 90.8718 4.22914 90.9824 4.27832V6.47363C90.9209 6.44904 90.8343 6.43652 90.7236 6.43652C90.6131 6.42426 90.478 6.41797 90.3184 6.41797C89.4207 6.41797 88.7503 6.61532 88.3076 7.00879C87.8652 7.40226 87.6436 8.02916 87.6436 8.88965V13.7959H85.3203V4.38965H87.5889V6.12012C87.8133 5.5802 88.1264 5.15061 88.5293 4.83203C89.058 4.41407 89.6911 4.20511 90.4287 4.20508ZM107.814 0.332031C108.072 0.332031 108.288 0.343617 108.46 0.368164C108.632 0.392743 108.798 0.43035 108.958 0.479492V2.28711C108.872 2.25027 108.761 2.22518 108.626 2.21289C108.491 2.18835 108.337 2.17578 108.165 2.17578C107.673 2.17582 107.304 2.29907 107.059 2.54492C106.825 2.77855 106.708 3.12317 106.708 3.57812V4.38965H108.756V6.21582H106.708V13.7959H104.384V6.21582H102.688V4.38965H104.384V3.52246C104.384 2.48984 104.667 1.70311 105.232 1.16211C105.81 0.608849 106.671 0.332092 107.814 0.332031ZM142.155 13.7959H139.831V4.38965H142.155V13.7959ZM161.66 4.20508C162.681 4.20516 163.474 4.49443 164.039 5.07227C164.617 5.65007 164.906 6.41818 164.906 7.37695V13.7959H162.563V7.85645C162.563 7.279 162.416 6.84287 162.121 6.54785C161.826 6.2528 161.396 6.10455 160.83 6.10449C160.338 6.10449 159.895 6.21527 159.502 6.43652C159.121 6.65785 158.819 6.9659 158.598 7.35938C158.389 7.75269 158.284 8.20748 158.284 8.72363V13.7959H155.961V4.38965H158.229V6.12402C158.536 5.59784 158.94 5.1663 159.446 4.83203C160.061 4.41397 160.799 4.20508 161.66 4.20508ZM180.052 13.7959H177.728V0.516602H180.052V13.7959ZM57.3672 4.72168C56.9861 4.72168 56.6048 4.91188 56.2236 5.29297C55.8425 5.66185 55.4978 6.16001 55.1904 6.78711C54.8954 7.41414 54.6561 8.1151 54.4717 8.88965C54.2872 9.652 54.1943 10.4207 54.1943 11.1953C54.1943 12.7445 54.5882 13.5194 55.375 13.5195C55.7685 13.5195 56.1497 13.3284 56.5186 12.9473C56.8997 12.5662 57.2444 12.0625 57.5518 11.4355C57.8592 10.8084 58.1046 10.1129 58.2891 9.35059C58.4734 8.57615 58.5664 7.80178 58.5664 7.02734C58.5664 5.49037 58.1664 4.72171 57.3672 4.72168ZM170.744 9.71973C170.191 9.80577 169.773 9.95945 169.49 10.1807C169.22 10.402 169.084 10.71 169.084 11.1035C169.084 11.4598 169.214 11.736 169.472 11.9326C169.73 12.117 170.086 12.2099 170.541 12.21C171.205 12.21 171.759 12.0438 172.201 11.7119C172.644 11.3799 172.865 10.9737 172.865 10.4941V9.39648L170.744 9.71973ZM96.8799 6.06738C96.1299 6.0674 95.5094 6.33263 95.0176 6.86133C94.5258 7.39001 94.2793 8.11502 94.2793 9.03711C94.2793 9.66415 94.39 10.2115 94.6113 10.6787C94.8449 11.1336 95.152 11.4908 95.5332 11.749C95.9267 11.9949 96.3758 12.1172 96.8799 12.1172C97.3717 12.1172 97.8146 11.9949 98.208 11.749C98.6015 11.4908 98.9086 11.1337 99.1299 10.6787C99.3512 10.2115 99.4619 9.6642 99.4619 9.03711C99.4619 8.11521 99.2162 7.38999 98.7246 6.86133C98.2451 6.3326 97.6299 6.06738 96.8799 6.06738ZM149.05 6.06738C148.3 6.06741 147.679 6.33263 147.188 6.86133C146.696 7.39001 146.449 8.11502 146.449 9.03711C146.449 9.66414 146.56 10.2115 146.781 10.6787C147.015 11.1336 147.322 11.4908 147.703 11.749C148.097 11.9949 148.546 12.1172 149.05 12.1172C149.542 12.1172 149.984 11.9949 150.378 11.749C150.771 11.4908 151.078 11.1337 151.3 10.6787C151.521 10.2115 151.632 9.66421 151.632 9.03711C151.632 8.11519 151.386 7.38999 150.895 6.86133C150.415 6.3326 149.8 6.06738 149.05 6.06738ZM28.2578 6.10449C27.5203 6.10461 26.9236 6.36885 26.4688 6.89746C26.0138 7.41389 25.7871 8.146 25.7871 9.09277C25.7871 10.0392 26.0141 10.7707 26.4688 11.2871C26.9236 11.8035 27.5265 12.0624 28.2764 12.0625C29.0264 12.0625 29.6228 11.8035 30.0654 11.2871C30.5081 10.7584 30.7295 10.021 30.7295 9.07422C30.7295 8.12743 30.5028 7.39534 30.0479 6.87891C29.6052 6.3625 29.0079 6.10449 28.2578 6.10449ZM114.393 5.95703C113.606 5.95713 112.979 6.22769 112.512 6.76855C112.208 7.12925 112.008 7.59706 111.907 8.1709H116.678C116.619 7.50344 116.425 6.98666 116.09 6.62109C115.684 6.17847 115.118 5.95703 114.393 5.95703ZM75.1387 6.75H78.5879C79.3501 6.75 79.9341 6.5535 80.3398 6.16016C80.7579 5.76673 80.9667 5.23184 80.9668 4.55566C80.9668 3.89168 80.7579 3.36848 80.3398 2.9873C79.9341 2.60634 79.35 2.41602 78.5879 2.41602H75.1387V6.75ZM2.39844 6.38184H5.5332C6.30765 6.38184 6.89795 6.20307 7.30371 5.84668C7.72175 5.49011 7.93162 4.99814 7.93164 4.37109C7.93164 3.744 7.72803 3.26461 7.32227 2.93262C6.9165 2.58836 6.32011 2.41602 5.5332 2.41602H2.39844V6.38184ZM142.247 2.83984H139.721V0.276367H142.247V2.83984Z" fill="white"/>
</svg>