<svg width="42" height="42" viewBox="0 0 42 42" fill="none" xmlns="http://www.w3.org/2000/svg">
<path d="M24.0908 16.1453C26.9691 15.9487 28.8811 17.5757 29.9092 19.5203C30.8013 21.2082 31.1138 23.2334 31.0908 24.9617C31.8232 24.7541 32.3931 24.4219 32.8184 24.0252C33.5965 23.2988 34.1251 22.1512 34.125 20.536H38.2998C38.2999 23.0936 37.4355 25.4256 35.666 27.077C34.4163 28.2429 32.828 28.9606 31.0322 29.2352C31.0176 29.8442 31.0049 30.4589 30.9883 31.0692C30.9339 33.0683 30.8794 35.032 30.8877 36.7576L26.7139 36.7772C26.7052 34.971 26.7616 32.9351 26.8154 30.9559C26.8297 30.4295 26.8408 29.9062 26.8535 29.3914C25.5266 29.3495 24.0918 29.1569 22.7832 28.6619C21.7354 28.2655 20.6893 27.6458 19.8662 26.6815C19.0262 25.6973 18.5117 24.4629 18.3838 23.0125L18.3848 23.0115C18.0666 19.7022 20.612 16.341 24.0908 16.1473V16.1453ZM24.376 20.3094L24.3545 20.3113L24.334 20.3123C23.436 20.3556 22.4205 21.4382 22.5391 22.619L22.541 22.6326L22.542 22.6453C22.5992 23.2944 22.8037 23.6944 23.041 23.9725C23.2954 24.2704 23.6861 24.5416 24.2598 24.7586C25.0133 25.0436 25.9383 25.1808 26.9092 25.2166L26.9102 25.2137C26.9749 23.8855 26.7374 22.4518 26.2188 21.4705C25.7563 20.5961 25.2097 20.2527 24.376 20.3094Z" fill="url(#paint0_radial_380_3773)"/>
<path d="M21.209 5C26.6045 5.0001 31.3114 6.6561 34.9043 10.249C35.5353 10.8801 36.3341 11.9674 36.9668 13.043C37.2918 13.5954 37.6059 14.1998 37.8447 14.7969C38.0673 15.3534 38.2978 16.0819 38.2979 16.8262H34.124C34.124 16.8744 34.1228 16.7327 33.9688 16.3477C33.8308 16.0028 33.6238 15.5921 33.3691 15.1592C32.8426 14.264 32.2496 13.4968 31.9531 13.2002C29.2799 10.527 25.7076 9.17392 21.209 9.17383C13.8431 9.17383 8.17385 14.6289 8.17383 21C8.17385 27.3711 13.8431 32.8262 21.209 32.8262H22.2979V37H21.209C11.872 37 4.00003 29.9968 4 21C4.00002 12.0032 11.872 5 21.209 5Z" fill="url(#paint1_radial_380_3773)"/>
<defs>
<radialGradient id="paint0_radial_380_3773" cx="0" cy="0" r="1" gradientUnits="userSpaceOnUse" gradientTransform="translate(28.3284 22.2596) rotate(90) scale(14.5181 14.0217)">
<stop stop-color="#71B37D"/>
<stop offset="0.384614" stop-color="#71B37D"/>
<stop offset="1" stop-color="#2395CE"/>
</radialGradient>
<radialGradient id="paint1_radial_380_3773" cx="0" cy="0" r="1" gradientUnits="userSpaceOnUse" gradientTransform="translate(21.149 14.5) rotate(90) scale(22.5001 24.1158)">
<stop stop-color="#619BFF"/>
<stop offset="0.341345" stop-color="#619BFF"/>
<stop offset="1" stop-color="#E8D178"/>
</radialGradient>
</defs>
</svg>
