<svg width="42" height="42" viewBox="0 0 42 42" fill="none" xmlns="http://www.w3.org/2000/svg">
<path d="M24.0908 16.1456C26.9693 15.9489 28.8811 17.5759 29.9092 19.5206C30.8014 21.2086 31.1139 23.2336 31.0908 24.962C31.8233 24.7545 32.393 24.4222 32.8184 24.0255C33.5967 23.2991 34.1251 22.1517 34.125 20.5363H38.2998C38.2999 23.094 37.4357 25.4259 35.666 27.0773C34.4162 28.2432 32.8281 28.961 31.0322 29.2355C31.0176 29.8446 31.0049 30.4591 30.9883 31.0695C30.9339 33.0687 30.8794 35.0323 30.8877 36.7579L26.7139 36.7775C26.7051 34.9713 26.7616 32.9355 26.8154 30.9562C26.8297 30.4297 26.8407 29.9066 26.8535 29.3917C25.5266 29.3498 24.0918 29.1573 22.7832 28.6622C21.7354 28.2658 20.6893 27.646 19.8662 26.6818C19.0263 25.6976 18.5117 24.4632 18.3838 23.0128L18.3848 23.0118C18.0665 19.7025 20.612 16.3414 24.0908 16.1476V16.1456ZM24.376 20.3097L24.3545 20.3116L24.334 20.3126C23.436 20.3561 22.4203 21.4385 22.5391 22.6193L22.541 22.6329L22.542 22.6456C22.5992 23.2946 22.8038 23.6947 23.041 23.9728C23.2954 24.2706 23.6862 24.5419 24.2598 24.7589C25.0133 25.044 25.9383 25.1811 26.9092 25.2169L26.9102 25.214C26.975 23.8857 26.7375 22.4522 26.2188 21.4708C25.7563 20.5963 25.2099 20.2528 24.376 20.3097Z" fill="#CCCCCC"/>
<path d="M21.209 5C26.6045 5.0001 31.3114 6.6561 34.9043 10.249C35.5353 10.8801 36.3341 11.9674 36.9668 13.043C37.2918 13.5954 37.6059 14.1998 37.8447 14.7969C38.0673 15.3534 38.2978 16.0819 38.2979 16.8262H34.124C34.124 16.8744 34.1228 16.7327 33.9688 16.3477C33.8308 16.0028 33.6238 15.5921 33.3691 15.1592C32.8426 14.264 32.2496 13.4968 31.9531 13.2002C29.2799 10.527 25.7076 9.17392 21.209 9.17383C13.8431 9.17383 8.17385 14.6289 8.17383 21C8.17385 27.3711 13.8431 32.8262 21.209 32.8262H22.2979V37H21.209C11.872 37 4.00003 29.9968 4 21C4.00002 12.0032 11.872 5 21.209 5Z" fill="#CCCCCC"/>
</svg>
