<svg width="116" height="30" viewBox="0 0 116 30" fill="none" xmlns="http://www.w3.org/2000/svg">
<path d="M50.9385 19.7725L54.0996 11.4102H57.4072L49.8779 29.0605H46.7188L49.2783 23.3184L44.3984 11.4102H47.7803L50.9385 19.7725ZM19.9854 19.3594C19.9854 20.1327 20.1753 20.7164 20.5537 21.1113C20.9486 21.5062 21.4996 21.704 22.207 21.7041C22.8488 21.7041 23.4085 21.5559 23.8857 21.2598C24.3794 20.9635 24.7661 20.552 25.0459 20.0254C25.3421 19.4824 25.4902 18.8738 25.4902 18.1992V11.4102H28.626V24H25.5889V21.6494C25.1886 22.3695 24.6474 22.9652 23.96 23.4326C23.1537 23.9756 22.1991 24.247 21.0967 24.2471C20.2245 24.2471 19.467 24.0662 18.8252 23.7041C18.1999 23.3256 17.7147 22.8146 17.3691 22.1729C17.0401 21.5311 16.875 20.8072 16.875 20.001V11.4102H19.9854V19.3594ZM34.5381 13.5156C34.807 12.8943 35.2347 12.3819 35.8213 11.9785C36.6277 11.4355 37.6237 11.1641 38.8086 11.1641C39.9277 11.1641 40.8988 11.4354 41.7217 11.9785C42.5609 12.5051 43.2111 13.2537 43.6719 14.2246C44.1326 15.1956 44.3633 16.3397 44.3633 17.6562C44.3632 18.9891 44.1247 20.1494 43.6475 21.1367C43.1702 22.1241 42.5032 22.8895 41.6475 23.4326C40.7918 23.9756 39.7796 24.2471 38.6113 24.2471C37.41 24.2471 36.4229 23.9667 35.6494 23.4072C35.1051 22.9931 34.7104 22.4683 34.4639 21.833V24H31.4277V6.22656H34.5381V13.5156ZM70.9473 5.97949C72.3624 5.97954 73.638 6.25985 74.7734 6.81934C75.9087 7.37882 76.8385 8.16838 77.5625 9.18848C78.303 10.1923 78.7553 11.3774 78.9199 12.7432H75.7607C75.5632 11.4104 75.0283 10.3902 74.1562 9.68262C73.2841 8.95853 72.2224 8.5967 70.9717 8.59668C69.8691 8.59668 68.9059 8.8601 68.083 9.38672C67.2604 9.91332 66.6189 10.662 66.1582 11.6328C65.6974 12.5873 65.4668 13.7226 65.4668 15.0391C65.4668 16.3885 65.6974 17.5575 66.1582 18.5449C66.619 19.5157 67.2692 20.2724 68.1084 20.8154C68.9476 21.3584 69.9101 21.6299 70.9961 21.6299C72.2139 21.6299 73.2587 21.276 74.1309 20.5684C75.0031 19.8443 75.5548 18.8243 75.7852 17.5078H78.9697C78.7722 18.8573 78.3031 20.0422 77.5625 21.0625C76.8384 22.0828 75.9089 22.8731 74.7734 23.4326C73.638 23.9756 72.3624 24.247 70.9473 24.2471C69.6801 24.2471 68.5111 24.0244 67.4414 23.5801C66.3883 23.1193 65.4666 22.478 64.6768 21.6553C63.8869 20.8325 63.2785 19.8611 62.8506 18.7422C62.4227 17.6231 62.208 16.3965 62.208 15.0635C62.2081 13.7306 62.4228 12.5127 62.8506 11.4102C63.2785 10.3077 63.879 9.35316 64.6523 8.54688C65.4422 7.72411 66.3638 7.09079 67.417 6.64648C68.4867 6.20215 69.6636 5.97949 70.9473 5.97949ZM85.7959 11.1641C87.5237 11.1641 88.8321 11.5588 89.7207 12.3486C90.6092 13.122 91.0536 14.2656 91.0537 15.7793V21.4824C91.0537 21.8772 91.0786 22.2802 91.1279 22.6914C91.1938 23.1028 91.2842 23.5392 91.3994 24H88.2891C88.2068 23.6709 88.1402 23.309 88.0908 22.9141C88.069 22.6527 88.0581 22.355 88.0508 22.0215C87.7197 22.6661 87.2576 23.1784 86.6592 23.5557C85.9188 24.0163 85.0057 24.247 83.9199 24.2471C82.6527 24.2471 81.6398 23.934 80.8828 23.3086C80.1425 22.6668 79.7725 21.8108 79.7725 20.7412C79.7725 19.5894 80.192 18.6756 81.0312 18.001C81.8705 17.3263 83.0556 16.8739 84.5859 16.6436L87.9434 16.1367V15.5078C87.9433 14.8497 87.7534 14.3564 87.375 14.0273C87.013 13.6819 86.454 13.5089 85.6973 13.5088C84.9568 13.5088 84.3642 13.649 83.9199 13.9287C83.492 14.192 83.2286 14.5787 83.1299 15.0889H80.1426C80.2742 13.9204 80.8339 12.9741 81.8213 12.25C82.8087 11.5259 84.1338 11.1641 85.7959 11.1641ZM108.174 11.1641C109.424 11.1641 110.51 11.4267 111.432 11.9531C112.353 12.4633 113.069 13.188 113.579 14.126C114.089 15.064 114.345 16.1585 114.345 17.4092C114.345 17.6395 114.337 17.8534 114.32 18.0508C114.304 18.2483 114.279 18.4461 114.246 18.6436H104.745C104.856 19.5569 105.143 20.2887 105.606 20.8398C106.232 21.5474 107.112 21.9013 108.247 21.9014C108.905 21.9014 109.482 21.7781 109.976 21.5312C110.469 21.2844 110.831 20.9056 111.062 20.3955H113.999C113.588 21.5803 112.889 22.5188 111.901 23.21C110.93 23.9012 109.704 24.2471 108.223 24.2471C106.89 24.2471 105.722 23.9667 104.718 23.4072C103.73 22.8477 102.957 22.0743 102.397 21.0869C101.854 20.0995 101.582 18.9643 101.582 17.6807C101.582 16.397 101.854 15.2698 102.397 14.2988C102.957 13.3114 103.73 12.546 104.718 12.0029C105.705 11.4435 106.857 11.1641 108.174 11.1641ZM8.96191 6.22656C10.229 6.22658 11.3316 6.44034 12.2695 6.86816C13.2074 7.29596 13.9233 7.89666 14.417 8.66992C14.9271 9.44339 15.1826 10.349 15.1826 11.3857C15.1826 12.406 14.9271 13.3027 14.417 14.0762C13.9233 14.8496 13.2076 15.451 12.2695 15.8789C11.3316 16.3067 10.2289 16.5205 8.96191 16.5205H8.85547L16.0713 24H11.6279L5.10352 16.5205H4.66699V24H1.45703V6.22656H8.96191ZM100.548 11.1641C100.893 11.1641 101.14 11.1969 101.288 11.2627V14.2002C101.206 14.1674 101.091 14.1504 100.943 14.1504C100.795 14.1339 100.613 14.126 100.399 14.126C99.1983 14.126 98.3014 14.3895 97.709 14.916C97.1167 15.4426 96.8203 16.2818 96.8203 17.4336V24H93.71V11.4102H96.7461V13.7295C97.0465 13.0058 97.4651 12.4298 98.0049 12.0029C98.7125 11.4434 99.5605 11.1641 100.548 11.1641ZM85.1045 18.5449C84.3639 18.6601 83.8043 18.8659 83.4258 19.1621C83.064 19.4582 82.8829 19.8692 82.8828 20.3955C82.8828 20.8728 83.0558 21.2435 83.4014 21.5068C83.7469 21.7536 84.2242 21.877 84.833 21.877C85.7216 21.8769 86.4623 21.6552 87.0547 21.2109C87.6471 20.7666 87.9434 20.2229 87.9434 19.5811V18.1123L85.1045 18.5449ZM37.7969 13.7061C36.8095 13.7061 36.0112 14.06 35.4023 14.7676C34.7935 15.4587 34.4883 16.438 34.4883 17.7051C34.4883 18.9723 34.7934 19.9514 35.4023 20.6426C36.0112 21.3338 36.8174 21.6797 37.8213 21.6797C38.8252 21.6797 39.6234 21.3338 40.2158 20.6426C40.8082 19.935 41.1045 18.9477 41.1045 17.6807C41.1045 16.4136 40.8002 15.4343 40.1914 14.7432C39.599 14.052 38.8006 13.7061 37.7969 13.7061ZM108.124 13.5088C107.071 13.5088 106.232 13.8708 105.606 14.5947C105.201 15.0774 104.931 15.703 104.796 16.4707H111.182C111.103 15.5779 110.844 14.8866 110.396 14.3975C109.852 13.805 109.095 13.5088 108.124 13.5088ZM4.66699 14.0762H8.86328C9.89988 14.0761 10.6894 13.8375 11.2324 13.3604C11.792 12.8831 12.0723 12.225 12.0723 11.3857C12.0723 10.5465 11.8009 9.90429 11.2578 9.45996C10.7148 8.99921 9.9164 8.76957 8.86328 8.76953H4.66699V14.0762Z" fill="black"/>
</svg>
