<svg width="111" height="45" viewBox="0 0 111 45" fill="none" xmlns="http://www.w3.org/2000/svg">
  <path d="M98.55 26.2295L104.239 11.2861H111L97.2414 44.6445H90.4338L94.9094 33.6553L84.7912 11.2861H92.3771L98.55 26.2295ZM54.5627 36.1611H47.5646V32.2627C46.2561 34.7873 43.6769 36.6904 39.4953 36.6904C34.5361 36.6904 30.8381 33.8311 30.8381 27.3154V11.2773H37.8361V26.3594C37.8361 29.7378 39.2487 31.3534 42.2638 31.3535C45.2792 31.3535 47.5646 29.5432 47.5646 25.877V11.2676H54.5627V36.1611ZM65.9406 15.1846C67.3534 12.8086 70.3115 10.7111 74.0568 10.7109C80.2771 10.7109 85.1418 15.2311 85.1418 23.4639V23.8447C85.1416 32.0772 80.3719 36.6904 74.0568 36.6904C70.1219 36.6903 67.2491 34.7868 65.9406 32.2158V36.1699H58.8947V0H65.9406V15.1846ZM9.45525 1.90234C12.3093 1.71672 14.9074 2.62673 16.8986 4.54785C20.4543 7.97264 20.8629 13.2351 20.8439 15.6484C23.2238 15.0358 26.5425 13.6718 27.9269 10.9434V19.4268C25.9262 20.8189 23.5459 21.7747 20.8625 22.2295C20.8625 23.7054 20.8725 27.9935 20.882 29.4785C20.882 31.6875 20.9008 33.878 20.9103 36.0127L14.3195 36.0498C14.31 33.915 14.3007 31.7149 14.2912 29.5059C14.2912 28.1319 14.2821 23.9742 14.2726 22.6191C2.32521 22.3964 0.333513 15.6953 0.0490032 12.6416C-0.225973 10.0892 0.665333 7.39741 2.49529 5.31836C4.29686 3.26719 6.83825 2.02307 9.45525 1.90234ZM71.924 15.9922C68.3777 15.9922 65.7034 18.5165 65.7033 23.5098V23.8906C65.7033 28.884 68.1307 31.3163 71.9709 31.3164C75.8586 31.3164 78.0021 28.7449 78.0021 23.8906V23.5098C78.002 18.461 75.4701 15.9924 71.924 15.9922ZM10.1476 8.3252C10.0434 8.3252 9.92964 8.32569 9.82537 8.33496C8.94352 8.37209 8.11819 8.80827 7.49236 9.51367C6.84773 10.2469 6.52523 11.175 6.61053 12.001C6.90448 15.1567 10.4891 16.0756 14.2346 16.1592V16.085C14.3863 13.1984 13.5992 10.4044 12.2717 9.13281C11.6933 8.57601 11.0294 8.31641 10.1476 8.31641V8.3252Z" fill="black"/>
</svg>
